<svg width="50" height="21" viewBox="0 0 50 21" fill="none" xmlns="http://www.w3.org/2000/svg">
<path d="M20.7461 7.51562H24.0795V9.18268H20.7461V7.51562Z" fill="black"/>
<path d="M49.2023 5.02426L43.5413 4.21583C42.509 3.5817 41.4378 3.01403 40.3333 2.51588C36.6859 0.86375 32.7271 0.0112335 28.7226 0.015642H27.7392C23.0134 0.019033 18.3632 1.20489 14.2125 3.46504L11.3556 5.02358C8.01127 5.06122 4.73143 5.9507 1.82595 7.60691C0.645178 8.2841 -0.0839029 9.5405 -0.0859375 10.9013V15.8499C-0.0859375 16.3104 0.287081 16.6835 0.747589 16.6835H3.54591C4.45607 19.28 7.29881 20.6473 9.89536 19.7371C11.3247 19.2363 12.4482 18.1125 12.949 16.6835H35.2148C36.125 19.28 38.9677 20.6473 41.5643 19.7371C42.9933 19.2363 44.1171 18.1125 44.6179 16.6835H44.917C45.0232 16.6835 45.1283 16.6635 45.227 16.6241L47.9263 15.541C49.1321 15.0635 49.9219 13.8963 49.9175 12.5999V5.84931C49.9175 5.43492 49.6127 5.08327 49.2023 5.02426ZM11.5139 15.6834C11.1453 17.4871 9.38432 18.6506 7.58061 18.282C5.77656 17.9134 4.61308 16.1524 4.98169 14.3484C5.35064 12.5447 7.11162 11.3812 8.91533 11.7498C10.4674 12.0668 11.5817 13.4324 11.5814 15.0167C11.5814 15.2406 11.5587 15.464 11.5139 15.6834ZM26.5825 15.0167H13.2481C13.2481 12.2551 11.0097 10.0163 8.24797 10.0163C5.48628 10.0163 3.24749 12.2551 3.24749 15.0167H1.58078V10.9013C1.58179 10.138 1.99076 9.433 2.65337 9.05388C5.37302 7.5011 8.45008 6.68386 11.5814 6.68284H26.5825V15.0167ZM26.5825 5.01612H14.8501L15.0108 4.92829C18.5738 2.99199 22.5315 1.8943 26.5825 1.71898V5.01612ZM28.2492 1.68236H28.7209C32.0794 1.67863 35.4074 2.31615 38.5269 3.56101L37.0718 5.01612H28.2492V1.68236ZM43.1828 15.6834C42.8142 17.4871 41.0532 18.6506 39.2492 18.282C37.4455 17.9134 36.282 16.1524 36.6506 14.3484C37.0192 12.5447 38.7805 11.3812 40.5843 11.7498C42.1364 12.0668 43.2507 13.4324 43.2503 15.0167C43.2503 15.2406 43.2276 15.464 43.1828 15.6834ZM48.2508 7.51603H45.7506V9.18308H48.2508V12.5999C48.2528 13.2141 47.8785 13.7668 47.3074 13.9923L44.917 14.9523C44.917 14.8757 44.9072 14.7997 44.9021 14.7231C44.897 14.6464 44.8953 14.5566 44.8872 14.4732C44.8787 14.3897 44.8621 14.3063 44.8489 14.2232C44.8353 14.1398 44.8255 14.0564 44.8089 13.9808C44.7922 13.9048 44.7678 13.8207 44.7461 13.7414C44.7244 13.6624 44.7078 13.5823 44.6827 13.5047C44.658 13.4274 44.6278 13.3531 44.5996 13.2771C44.5711 13.2015 44.5454 13.1232 44.5162 13.0479C44.487 12.9729 44.4477 12.9048 44.4128 12.8339C44.3779 12.763 44.3436 12.6854 44.3046 12.6138C44.2653 12.5423 44.2212 12.4812 44.1835 12.4148C44.1462 12.348 44.1005 12.272 44.053 12.2038C44.0052 12.1353 43.9611 12.0814 43.9153 12.0197C43.8695 11.958 43.8176 11.8854 43.7644 11.8213C43.7112 11.7572 43.6613 11.7071 43.6094 11.6545C43.5579 11.6023 43.5002 11.5314 43.4429 11.4731C43.3853 11.4147 43.3287 11.3686 43.2713 11.3171C43.2137 11.2655 43.152 11.2045 43.0886 11.1502C43.0255 11.0963 42.9611 11.0546 42.898 11.0071C42.8346 10.9597 42.7712 10.9088 42.7047 10.8644C42.6379 10.8203 42.563 10.7813 42.4914 10.7345C42.4195 10.6877 42.3612 10.6511 42.2937 10.6155C42.2262 10.5795 42.1421 10.5419 42.0655 10.5053C41.9888 10.4686 41.9288 10.4361 41.8579 10.4062C41.7871 10.3761 41.6911 10.3445 41.608 10.3147C41.5246 10.2845 41.4703 10.2611 41.3995 10.2387C41.3045 10.2096 41.2072 10.1885 41.1102 10.1645C41.0468 10.1495 40.9861 10.1295 40.922 10.1163C40.8196 10.0953 40.7145 10.0837 40.6104 10.0685C40.5486 10.0603 40.4896 10.0468 40.4279 10.041C40.2611 10.0244 40.0946 10.0152 39.9196 10.0152C37.1589 10.018 34.9218 12.2551 34.9191 15.0157H28.2496V6.6825H37.4167C37.6377 6.6825 37.8497 6.59467 38.0057 6.43834L40.1668 4.27721C41.0739 4.70889 41.9559 5.19144 42.8088 5.72248C42.9071 5.78386 43.017 5.82422 43.132 5.84083L48.2508 6.57161V7.51603Z" fill="black"/>
</svg>
