<svg width="43" height="42" viewBox="0 0 43 42" fill="none" xmlns="http://www.w3.org/2000/svg">
<g clip-path="url(#clip0)">
<path d="M14.8155 37.7944C14.8155 38.5675 14.189 39.1944 13.4155 39.1944C12.6424 39.1944 12.0156 38.5675 12.0156 37.7944C12.0156 37.0213 12.6424 36.3945 13.4155 36.3945C14.189 36.3945 14.8155 37.0213 14.8155 37.7944Z" fill="black"/>
<path d="M38.6127 33.5948H33.713V32.1949H37.9127C38.2996 32.1949 38.6127 31.8814 38.6127 31.4949V25.8952C38.6127 25.7097 38.5392 25.5316 38.4076 25.4003L36.5128 23.5055V22.3955C36.5128 21.2358 35.5729 20.2956 34.4129 20.2956H30.0221L29.314 17.656C28.4896 14.577 26.3057 12.0424 23.3824 10.772L8.06404 4.06498C7.80634 3.9539 7.5336 3.88315 7.25471 3.85513L7.21131 2.34448C7.14329 1.21901 6.3285 0.279468 5.22388 0.05287C4.11926 -0.173386 3.00028 0.369696 2.49514 1.37794L1.41273 3.53591C1.01935 4.32336 0.814625 5.19181 0.814967 6.07257C0.814625 6.72365 0.866916 7.37405 0.971158 8.01693L3.45895 23.5643L3.19441 23.7612C1.60823 24.9506 0.718244 26.8515 0.820435 28.8318C0.922968 30.8117 2.00401 32.6108 3.70468 33.6303L4.65653 34.1973C4.76487 34.2616 4.88894 34.2951 5.01471 34.2947H8.5145C8.77288 34.2947 9.01007 34.1525 9.13209 33.9249C9.25376 33.6973 9.24043 33.4211 9.09688 33.2062L7.81454 31.285V23.7954C7.81352 23.6959 7.80463 23.5965 7.78754 23.4987L7.41364 9.79075L18.548 15.8221C19.5149 16.3474 20.276 17.1837 20.708 18.1957H16.914C16.6802 18.1957 16.4618 18.3126 16.3319 18.5071L13.5321 22.7068C13.4556 22.822 13.4145 22.9573 13.4142 23.0954V31.4949C13.4142 31.8814 13.7276 32.1949 14.1142 32.1949H18.3139V33.5948H13.4142C11.0949 33.5948 9.21445 35.4752 9.21445 37.7945C9.21445 40.1138 11.0949 41.9943 13.4142 41.9943H38.6127C40.9323 41.9943 42.8124 40.1138 42.8124 37.7945C42.8124 35.4752 40.9323 33.5948 38.6127 33.5948V33.5948ZM19.0139 34.9947H35.4909C34.0537 36.5846 34.0537 39.0044 35.4909 40.5943H16.5363C17.9735 39.0044 17.9735 36.5846 16.5363 34.9947H19.0139ZM35.1129 22.3955V23.0954H28.8133V22.3955C28.8133 22.0089 29.1267 21.6955 29.5132 21.6955H34.4129C34.7998 21.6955 35.1129 22.0089 35.1129 22.3955ZM5.96416 23.1457C5.99322 23.1593 6.02158 23.1747 6.04858 23.1921C6.09267 23.215 6.13403 23.2431 6.17196 23.2752C6.19896 23.3001 6.22391 23.3271 6.24681 23.3558C6.29876 23.4187 6.34012 23.4898 6.36917 23.5657C6.38045 23.6036 6.38797 23.6426 6.39241 23.6819L6.39788 23.876C6.36028 24.2257 6.0667 24.4919 5.71467 24.4953C5.32812 24.4953 5.01471 24.1819 5.01471 23.7954C5.01471 23.4088 5.32812 23.0954 5.71467 23.0954C5.80045 23.0964 5.88487 23.1135 5.96416 23.1457ZM5.20747 32.8948L4.42412 32.4279C3.15921 31.6689 2.34134 30.3435 2.23026 28.8728C2.11884 27.4021 2.72789 25.9687 3.86429 25.0282C3.94427 25.0924 4.03791 25.1382 4.13771 25.1625C4.69242 25.8255 5.60462 26.0675 6.41463 25.7664V31.4949C6.41497 31.633 6.45598 31.7683 6.53254 31.8835L7.20652 32.8948H5.20747ZM6.3449 21.7984C6.31893 21.7898 6.29295 21.7844 6.26698 21.7775C6.21469 21.7635 6.16342 21.7451 6.10976 21.7355C5.97954 21.7092 5.84728 21.6958 5.71467 21.6955C5.58001 21.6962 5.44569 21.7098 5.31376 21.7362C5.26968 21.7444 5.229 21.7597 5.18628 21.771C5.10221 21.7919 5.01915 21.8179 4.93781 21.8479C4.8903 21.8678 4.84622 21.8913 4.79802 21.9139C4.73924 21.9433 4.67874 21.9699 4.62304 22.0041L2.35501 7.79376C2.26205 7.2247 2.21522 6.64915 2.21488 6.07257C2.21488 5.4085 2.36936 4.75332 2.66637 4.15931L3.74296 2.00646C3.90496 1.70399 4.1965 1.49243 4.53417 1.43262C4.87185 1.37247 5.21841 1.47056 5.47474 1.69852C5.6716 1.88308 5.79259 2.13463 5.81344 2.40395L5.86197 4.09574C4.94499 4.52159 4.34688 5.42764 4.31578 6.43793C4.28468 7.44822 4.82605 8.38947 5.71467 8.87103L5.99492 9.02005L6.3449 21.7984ZM19.2176 14.5889L6.3825 7.63961C5.78815 7.31014 5.55608 6.57293 5.8548 5.96252C6.15317 5.35177 6.87739 5.0821 7.5025 5.34869L22.8175 12.055C25.3511 13.1559 27.2442 15.3525 27.9588 18.0207L28.6236 20.4986C27.887 20.8431 27.4154 21.582 27.4133 22.3955V23.0954H26.0134V18.8957C26.0134 18.5091 25.7004 18.1957 25.3135 18.1957H22.2023C21.7077 16.6543 20.6373 15.3631 19.2141 14.5917L19.2176 14.5889ZM14.8141 23.3053L17.2886 19.5956H24.6135V21.6955H23.2136C23.028 21.6955 22.8503 21.7693 22.7191 21.9006L18.5193 26.1003C18.3877 26.2315 18.3142 26.4096 18.3139 26.5952V27.9951H14.8141V23.3053ZM24.6135 23.0954V27.9951H19.7138V26.885L23.5034 23.0954H24.6135ZM14.8141 29.395H25.3135C25.7004 29.395 26.0134 29.0816 26.0134 28.6951V24.4953H35.5233L37.2127 26.1851V30.7949H14.8141V29.395ZM19.7138 32.1949H32.313V33.5948H19.7138V32.1949ZM10.6144 37.7945C10.6144 36.2483 11.868 34.9947 13.4142 34.9947C14.9607 34.9947 16.214 36.2483 16.214 37.7945C16.214 39.3407 14.9607 40.5943 13.4142 40.5943C11.868 40.5943 10.6144 39.3407 10.6144 37.7945ZM38.6127 40.5943C37.0665 40.5943 35.8128 39.3407 35.8128 37.7945C35.8128 36.2483 37.0665 34.9947 38.6127 34.9947C40.1592 34.9947 41.4125 36.2483 41.4125 37.7945C41.4125 39.3407 40.1592 40.5943 38.6127 40.5943Z" fill="black"/>
<path d="M40.0108 37.7944C40.0108 38.5675 39.3843 39.1944 38.6109 39.1944C37.8378 39.1944 37.2109 38.5675 37.2109 37.7944C37.2109 37.0213 37.8378 36.3945 38.6109 36.3945C39.3843 36.3945 40.0108 37.0213 40.0108 37.7944Z" fill="black"/>
<path d="M27.4141 37.0947H28.8141V38.4947H27.4141V37.0947Z" fill="black"/>
<path d="M23.2148 37.0947H24.6148V38.4947H23.2148V37.0947Z" fill="black"/>
<path d="M31.6094 37.0947H33.0094V38.4947H31.6094V37.0947Z" fill="black"/>
<path d="M19.0117 37.0947H20.4117V38.4947H19.0117V37.0947Z" fill="black"/>
<path d="M33.7148 25.8965H35.1148V27.9964H33.7148V25.8965Z" fill="black"/>
<path d="M30.9102 25.8965H32.3101V27.9964H30.9102V25.8965Z" fill="black"/>
</g>
<defs>
<clipPath id="clip0">
<rect width="42" height="42" fill="white" transform="translate(0.8125)"/>
</clipPath>
</defs>
</svg>
