<svg width="50" height="23" viewBox="0 0 50 23" fill="none" xmlns="http://www.w3.org/2000/svg">
<path d="M11.4531 14.0615C10.6612 14.0615 9.88711 14.2963 9.22867 14.7363C8.57023 15.1763 8.05705 15.8016 7.754 16.5332C7.45095 17.2648 7.37166 18.0699 7.52615 18.8466C7.68065 19.6232 8.06198 20.3367 8.62194 20.8966C9.18189 21.4566 9.89532 21.8379 10.672 21.9924C11.4487 22.1469 12.2537 22.0676 12.9853 21.7646C13.717 21.4615 14.3423 20.9483 14.7822 20.2899C15.2222 19.6315 15.457 18.8573 15.457 18.0654C15.4558 17.0039 15.0336 15.9862 14.283 15.2356C13.5324 14.485 12.5146 14.0627 11.4531 14.0615ZM11.4531 20.7022C10.9316 20.7022 10.4218 20.5475 9.98824 20.2578C9.55464 19.9681 9.21668 19.5563 9.01711 19.0745C8.81755 18.5927 8.76533 18.0625 8.86707 17.551C8.96881 17.0396 9.21993 16.5697 9.58868 16.201C9.95743 15.8322 10.4273 15.5811 10.9387 15.4794C11.4502 15.3776 11.9804 15.4299 12.4621 15.6294C12.9439 15.829 13.3557 16.1669 13.6455 16.6006C13.9352 17.0342 14.0898 17.5439 14.0898 18.0654C14.0891 18.7645 13.811 19.4347 13.3167 19.929C12.8224 20.4233 12.1522 20.7014 11.4531 20.7022Z" fill="black"/>
<path d="M39.043 14.1104C38.2511 14.1104 37.477 14.3452 36.8185 14.7851C36.1601 15.2251 35.6469 15.8504 35.3438 16.582C35.0408 17.3137 34.9615 18.1187 35.116 18.8954C35.2705 19.6721 35.6518 20.3855 36.2118 20.9455C36.7717 21.5054 37.4852 21.8868 38.2619 22.0412C39.0385 22.1957 39.8436 22.1164 40.5752 21.8134C41.3068 21.5104 41.9322 20.9972 42.3721 20.3387C42.8121 19.6803 43.0469 18.9062 43.0469 18.1143C43.0457 17.0527 42.6235 16.035 41.8729 15.2844C41.1222 14.5338 40.1045 14.1115 39.043 14.1104ZM39.043 20.751C38.5215 20.751 38.0117 20.5963 37.5781 20.3066C37.1445 20.0169 36.8065 19.6051 36.607 19.1233C36.4074 18.6415 36.3552 18.1113 36.4569 17.5999C36.5587 17.0884 36.8098 16.6186 37.1785 16.2498C37.5473 15.8811 38.0171 15.6299 38.5286 15.5282C39.0401 15.4265 39.5702 15.4787 40.052 15.6783C40.5338 15.8778 40.9456 16.2158 41.2353 16.6494C41.5251 17.083 41.6797 17.5928 41.6797 18.1143C41.6789 18.8133 41.4009 19.4835 40.9066 19.9779C40.4123 20.4722 39.742 20.7502 39.043 20.751Z" fill="black"/>
<path d="M48.2003 6.22383L42.5948 1.40586C42.1181 0.99263 41.5098 0.762863 40.8789 0.757812H26.6554C26.4935 0.757812 26.3308 0.774805 26.1679 0.779492C26.0824 0.772844 25.9963 0.779431 25.9128 0.799023C24.5561 0.861229 23.2101 1.06856 21.8976 1.41748C20.8942 1.68401 19.9104 2.01958 18.9532 2.42178C15.9915 3.6825 13.2676 5.44098 10.8993 7.621C8.50331 7.65632 6.12871 8.07826 3.86719 8.87051C2.98973 9.17869 2.23108 9.75443 1.69815 10.5166C1.16346 11.2757 0.87725 12.1819 0.878913 13.1104V17.4975C0.878231 17.7932 0.993574 18.0773 1.20016 18.2889C1.40674 18.5005 1.68807 18.6225 1.9837 18.6289H6.19141C6.36978 18.626 6.54022 18.5547 6.66746 18.4297C6.79471 18.3047 6.86902 18.1355 6.87501 17.9572C6.91821 16.7717 7.41965 15.6491 8.2738 14.8259C9.12794 14.0026 10.2682 13.5428 11.4545 13.5432C12.6408 13.5436 13.7807 14.0043 14.6343 14.8282C15.4878 15.6521 15.9884 16.775 16.0308 17.9605C16.0369 18.1385 16.1114 18.3072 16.2387 18.4316C16.366 18.5561 16.5363 18.6268 16.7144 18.6289H33.6992C33.8776 18.6261 34.0481 18.5548 34.1753 18.4297C34.3025 18.3047 34.3768 18.1355 34.3828 17.9572C34.425 16.7818 34.9176 15.6675 35.7588 14.8453C36.5999 14.0232 37.7251 13.556 38.9012 13.5407C40.0773 13.5253 41.2143 13.963 42.0766 14.763C42.9389 15.5629 43.4604 16.6639 43.5332 17.8379C43.5393 17.9357 43.5664 18.031 43.6127 18.1174C43.6589 18.2038 43.7232 18.2793 43.8012 18.3386C43.8791 18.3979 43.969 18.4398 44.0646 18.4613C44.1602 18.4829 44.2593 18.4836 44.3552 18.4634C44.5513 18.4219 44.7451 18.37 44.9357 18.3079C46.1521 17.9127 47.2122 17.1426 47.9641 16.1079C48.7159 15.0732 49.1209 13.8271 49.1211 12.5481V8.22578C49.1213 7.84538 49.0391 7.46945 48.8802 7.12386C48.7212 6.77827 48.4893 6.47121 48.2003 6.22383V6.22383ZM40.8789 2.125C41.1834 2.12997 41.4762 2.24302 41.7051 2.44395L47.3106 7.25518C47.4622 7.38107 47.5841 7.53903 47.6674 7.71768L37.5977 7.69297V2.125H40.8789ZM36.2305 7.68916L26.7578 7.66299V2.125H36.2305V7.68916ZM19.4806 3.68408C20.3807 3.30651 21.3058 2.99153 22.2493 2.74141C23.2777 2.46618 24.3292 2.28638 25.3906 2.2043V7.65918L12.9856 7.62471C14.3313 6.5293 16.6205 4.88008 19.4806 3.68408ZM11.4525 12.1956C10.0242 12.183 8.64001 12.6898 7.55759 13.6218C6.47517 14.5538 5.76833 15.8474 5.56866 17.2617H2.2461V13.1104C2.24484 12.4633 2.44426 11.8317 2.8169 11.3026C3.18648 10.7738 3.71265 10.3742 4.3213 10.1601C6.52638 9.38809 8.84535 8.99154 11.1816 8.98691L25.3906 9.02598V17.2617H17.3365C17.1369 15.8474 16.43 14.5538 15.3476 13.6218C14.2651 12.6898 12.8809 12.183 11.4525 12.1956V12.1956ZM45.8158 16.3445C45.4974 16.5751 45.1513 16.7648 44.7856 16.9091C44.4984 15.5425 43.7398 14.3204 42.6425 13.4568C41.5452 12.5931 40.1791 12.1429 38.7833 12.185C37.3875 12.227 36.051 12.7586 35.0076 13.6867C33.9642 14.6148 33.2805 15.8803 33.0762 17.2617H26.7578V9.03018L47.7539 9.08877V10.9141H46.0617C45.8804 10.9141 45.7065 10.9861 45.5784 11.1143C45.4502 11.2425 45.3781 11.4164 45.3781 11.5977C45.3781 11.779 45.4502 11.9528 45.5784 12.081C45.7065 12.2092 45.8804 12.2812 46.0617 12.2812H47.7539V12.5481C47.753 13.2889 47.5769 14.019 47.2401 14.6787C46.9033 15.3385 46.4152 15.9093 45.8158 16.3445V16.3445Z" fill="black"/>
<path d="M22.8783 9.9375H20.4648C20.2835 9.9375 20.1097 10.0095 19.9815 10.1377C19.8533 10.2659 19.7812 10.4398 19.7812 10.6211C19.7812 10.8024 19.8533 10.9763 19.9815 11.1045C20.1097 11.2327 20.2835 11.3047 20.4648 11.3047H22.8783C23.0596 11.3047 23.2335 11.2327 23.3617 11.1045C23.4899 10.9763 23.5619 10.8024 23.5619 10.6211C23.5619 10.4398 23.4899 10.2659 23.3617 10.1377C23.2335 10.0095 23.0596 9.9375 22.8783 9.9375Z" fill="black"/>
</svg>
