<svg width="43" height="20" viewBox="0 0 43 20" fill="none" xmlns="http://www.w3.org/2000/svg">
<path fill-rule="evenodd" clip-rule="evenodd" d="M9.22043 6.10448L3.04501 6.87672C1.50597 7.06834 0.345032 8.38309 0.345032 9.93431V13.1005C0.345032 14.3467 1.35889 15.3609 2.60538 15.3609H3.4052V15.361H5.29033C5.4785 17.568 7.33492 19.3064 9.5896 19.3064C9.84082 19.3064 10.0927 19.2843 10.3385 19.2414L10.3384 19.2413C12.2441 18.9072 13.7236 17.3184 13.8905 15.361H30.03C30.1015 16.1994 30.4138 16.9701 30.8973 17.6037L30.8956 17.6049C31.2428 18.0617 31.6726 18.4394 32.1729 18.7283C32.5172 18.927 32.8778 19.0728 33.2451 19.1681C33.5916 19.2581 33.9549 19.306 34.3292 19.306C34.5804 19.306 34.8323 19.2843 35.0778 19.241L35.0775 19.2394C36.2905 19.025 37.4045 18.2968 38.0673 17.1489C38.3941 16.5829 38.5776 15.9728 38.6293 15.361H40.4531V15.3304C41.5325 15.1545 42.3438 14.2215 42.3438 13.1007V6.07324H38.2734V6.07307H26.3175V0.648438H14.5938L12.1998 3.07925L9.22043 6.10448ZM38.1718 13.0286C38.3474 13.3712 38.4786 13.7402 38.5575 14.1279H40.1322L40.1321 14.1264C40.681 14.1014 41.1107 13.6509 41.1107 13.1007V7.30627H37.5052V7.30611H26.3175V14.1279H30.1009C30.2012 13.6356 30.3856 13.1735 30.6384 12.7573C30.977 12.1974 31.4246 11.7413 31.9384 11.4003C32.6232 10.9428 33.4456 10.6758 34.3292 10.6758C34.8558 10.6758 35.3607 10.7706 35.8276 10.944C36.0525 11.0274 36.2734 11.1306 36.4879 11.2545C37.2362 11.6866 37.8063 12.3105 38.1718 13.0286ZM5.36137 14.1279H3.76086V14.1278H2.60538C2.03885 14.1278 1.57806 13.6671 1.57806 13.1005V10.6758H2.93414C4.18031 10.6758 5.19449 9.66194 5.19449 8.41545V7.85052L9.54791 7.30611H19.3314V14.1279H13.8195C13.4186 12.1606 11.675 10.6758 9.59128 10.6758C9.34006 10.6758 9.0882 10.6979 8.84242 10.7408L8.84244 10.7409C7.09965 11.0464 5.71333 12.4014 5.36137 14.1279ZM20.5641 7.30611V14.1279H25.0848V7.30611H20.5641ZM10.9819 6.07307L13.0781 3.94443L15.11 1.88147H19.3314V6.07307H10.9819ZM25.0848 6.07307H20.5641V1.88147H25.0848V6.07307ZM3.96146 8.41545C3.96146 8.98198 3.50067 9.44308 2.93414 9.44308L1.64503 9.44276C1.83986 8.73877 2.4426 8.19403 3.19754 8.10014L3.96146 8.00465V8.41545ZM36.9995 16.5324C37.0656 16.4178 37.1235 16.3008 37.1734 16.1819L37.1731 16.1818C37.3314 15.8047 37.4115 15.4041 37.4115 14.9908C37.4115 14.9267 37.4095 14.8631 37.4056 14.8C37.3806 14.4069 37.2807 14.0214 37.1119 13.6658C36.728 12.8628 36.0065 12.2509 35.1323 12.0149C34.2241 11.7704 33.2549 11.9594 32.5074 12.5062C32.2526 12.6934 32.0276 12.9189 31.8408 13.174C31.7767 13.2619 31.7167 13.354 31.6611 13.4503C31.5711 13.6062 31.4945 13.7703 31.433 13.9376L31.4324 13.9373C31.3124 14.2661 31.247 14.6209 31.247 14.9908C31.247 16.6874 32.6248 18.0682 34.3203 18.073C35.388 18.0746 36.4283 17.5216 36.9995 16.5324ZM9.59128 18.073C10.8688 18.073 11.967 17.292 12.4338 16.1823L12.4335 16.1822C12.5918 15.805 12.6719 15.4045 12.6719 14.9911C12.6719 13.2915 11.2892 11.9092 9.5896 11.9092C8.3121 11.9092 7.21383 12.6902 6.74712 13.7999L6.74742 13.8C6.58913 14.1772 6.50902 14.5777 6.50902 14.9911C6.50902 16.6907 7.89169 18.073 9.59128 18.073ZM15.5069 8.53906H17.9727V9.77209H15.5069V8.53906Z" fill="black"/>
</svg>
