<svg width="43" height="35" viewBox="0 0 43 35" fill="none" xmlns="http://www.w3.org/2000/svg">
<path d="M20.304 25.1992C18.7575 25.1992 17.5039 26.4528 17.5039 27.9993C17.5039 29.5458 18.7575 30.7994 20.304 30.7994C21.8505 30.7994 23.1044 29.5458 23.1044 27.9993C23.1044 26.4528 21.8505 25.1992 20.304 25.1992ZM20.304 29.3993C19.5309 29.3993 18.904 28.7724 18.904 27.9993C18.904 27.2259 19.5309 26.5993 20.304 26.5993C21.0774 26.5993 21.7043 27.2259 21.7043 27.9993C21.7043 28.7727 21.0774 29.3993 20.304 29.3993Z" fill="black"/>
<path d="M38.5067 0.697266H27.6322C25.8801 0.700114 24.2624 1.63557 23.3857 3.15212L16.206 15.7372L15.405 17.0714V1.39715C15.405 1.0106 15.0916 0.697266 14.7051 0.697266H11.9047C11.5182 0.697266 11.2048 1.0106 11.2048 1.39715V27.2993H0.704071C0.317243 27.2993 0.00390625 27.6126 0.00390625 27.9992V30.7993C0.00390625 31.1861 0.317243 31.4994 0.704071 31.4994H11.2045V33.5996C11.2045 33.9862 11.5182 34.2995 11.9047 34.2995H14.7048C15.0916 34.2995 15.405 33.9862 15.405 33.5996V31.939C17.5596 34.6442 21.4991 35.0906 24.2043 32.9359C24.7156 32.5289 25.16 32.0441 25.5212 31.4994H34.1815C35.3363 33.5059 37.8991 34.1967 39.9056 33.0419C41.2085 32.2922 42.0101 30.9024 42.0067 29.3992C42.0041 29.1503 41.979 28.9021 41.9318 28.6577C41.9785 28.4413 42.0035 28.2208 42.0067 27.9992V4.19752C42.0047 2.26537 40.4389 0.699544 38.5067 0.697266ZM11.2045 30.0994H1.40395V28.699H11.2048V30.0994H11.2045ZM14.0049 19.5986V32.8995H12.6049V2.09731H14.0049V19.5986ZM15.405 19.7923L16.9452 17.2266L21.5375 21.8199C21.4247 21.7974 21.3085 21.7848 21.1937 21.7686C21.1091 21.7566 21.0257 21.7393 20.9396 21.7307C20.4995 21.6854 20.056 21.688 19.6165 21.7387C19.5416 21.7464 19.4695 21.7618 19.396 21.7723C19.2448 21.7945 19.0944 21.8176 18.9465 21.8506C18.8616 21.8694 18.7793 21.8934 18.6959 21.915C18.5628 21.9506 18.4307 21.9851 18.3011 22.0318C18.2162 22.06 18.133 22.0913 18.0498 22.1235C17.9251 22.172 17.8026 22.2229 17.6815 22.2791C17.6009 22.3161 17.522 22.354 17.4428 22.3939C17.3232 22.4554 17.2069 22.522 17.0927 22.5904C17.0229 22.634 16.9466 22.6767 16.8757 22.7229C16.756 22.8006 16.6412 22.8852 16.5256 22.9712C16.4663 23.016 16.4045 23.0581 16.3458 23.1057C16.2057 23.2199 16.0707 23.3416 15.9396 23.4677C15.9146 23.4922 15.8867 23.5139 15.8613 23.5378C15.7083 23.6905 15.5633 23.8512 15.4266 24.0186C15.4204 24.0269 15.4127 24.0335 15.4064 24.0417L15.405 19.7923ZM24.5447 30.4495C23.1885 32.7872 20.1936 33.5828 17.8555 32.2267C15.5178 30.8702 14.7222 27.8753 16.0784 25.5375C17.4348 23.1994 20.4297 22.4038 22.7675 23.7603C24.2787 24.6368 25.2078 26.2522 25.2056 27.9992C25.2036 28.8597 24.9757 29.7046 24.5447 30.4495ZM37.8065 32.1996C36.6942 32.1985 35.6881 31.539 35.2429 30.5195C35.0868 30.1666 35.0062 29.7852 35.0065 29.3992C35.0065 27.8528 36.2601 26.5991 37.8065 26.5991C39.353 26.5991 40.6066 27.8528 40.6066 29.3992C40.6066 30.946 39.3533 32.1996 37.8065 32.1996ZM40.6069 26.2792C40.5796 26.2547 40.5474 26.2371 40.5195 26.214C40.4126 26.1268 40.3018 26.0451 40.1868 25.969C40.0999 25.9086 40.0167 25.8457 39.9256 25.7927C39.7999 25.7215 39.6706 25.6568 39.5384 25.5987C39.4476 25.5566 39.3607 25.5098 39.267 25.474C39.114 25.4201 38.9579 25.3748 38.7998 25.3389C38.7181 25.3187 38.6397 25.2891 38.5557 25.2737C38.3087 25.2259 38.0581 25.2008 37.8065 25.1988C35.4879 25.2014 33.6087 27.0805 33.6064 29.3992C33.6081 29.6103 33.6261 29.8208 33.6602 30.0293C33.6637 30.0515 33.6602 30.0746 33.6659 30.0991H26.2419C26.2909 29.9592 26.3313 29.8191 26.3706 29.6826C26.3774 29.659 26.386 29.6356 26.3923 29.6126C26.4529 29.3787 26.4996 29.1414 26.5324 28.9021C26.5407 28.846 26.5478 28.7893 26.5541 28.7327C26.586 28.4894 26.6033 28.2444 26.6059 27.9992C26.605 27.7696 26.5919 27.5403 26.5666 27.3124C26.5589 27.2423 26.5449 27.1722 26.535 27.1022C26.5128 26.9475 26.4888 26.7937 26.4561 26.643C26.4509 26.6213 26.4498 26.5983 26.4447 26.5772C26.4974 26.5906 26.5515 26.5977 26.6056 26.5991H30.806C31.1926 26.5991 31.5062 26.2855 31.5062 25.899V20.2985H40.6066V26.2792H40.6069ZM30.1062 18.8984C29.7193 18.8984 29.406 18.5851 29.406 18.1986C29.406 17.8117 29.7196 17.4984 30.1062 17.4984H35.7066C36.0932 17.4984 36.4065 17.1851 36.4065 16.7985V10.4979C36.4065 10.1113 36.7201 9.79799 37.1067 9.79799C37.4932 9.79799 37.8065 10.1113 37.8065 10.4979V16.7985C37.8065 17.9584 36.8662 18.8984 35.7063 18.8984H30.1062ZM40.6069 18.8984H38.4885C38.9516 18.2963 39.204 17.5582 39.2066 16.7982V10.4979C39.2066 9.33796 38.2666 8.39766 37.1067 8.39766C35.9467 8.39766 35.0065 9.33796 35.0065 10.4979V16.0983H30.1062C28.9462 16.0983 28.0059 17.0386 28.0059 18.1986C28.0059 19.3585 28.9462 20.2985 30.1062 20.2985V25.1991H26.8956L20.5699 18.8734L25.6012 13.2834L26.811 14.4932L27.8008 13.5033L24.3006 10.0031L23.3107 10.9929L24.6094 12.2922L19.5786 17.8821L17.6781 15.9816L24.6003 3.84744C25.2269 2.76557 26.3817 2.09902 27.6322 2.09731H38.5067C39.6666 2.09731 40.6069 3.03761 40.6069 4.19752V18.8984Z" fill="black"/>
<path d="M37.1094 28.6992H38.5094V30.0993H37.1094V28.6992Z" fill="black"/>
</svg>
