<svg width="43" height="26" viewBox="0 0 43 26" fill="none" xmlns="http://www.w3.org/2000/svg">
<path d="M1.65794 11.8519L4.75711 9.7859L8.30493 2.00492C8.77664 1.05381 9.74798 0.453628 10.8096 0.457046H39.614C41.1604 0.457046 42.4141 1.71067 42.4141 3.25741V22.1587C42.4141 22.5452 42.1007 22.8585 41.7139 22.8585H37.9624C37.1979 25.0399 34.81 26.1882 32.6289 25.4236C31.4285 25.0029 30.4845 24.0589 30.0638 22.8585H14.1609C13.3963 25.0399 11.0084 26.1882 8.82706 25.4236C7.6267 25.0029 6.68299 24.0589 6.26226 22.8585H1.11131C0.724487 22.8585 0.411148 22.5452 0.411148 22.1587V13.7581C0.441345 12.9406 0.921032 12.2071 1.65794 11.8519ZM6.44428 9.55773H11.612C11.9986 9.55773 12.3119 9.2444 12.3119 8.85757V5.35733C12.3119 4.97079 11.9986 4.65745 11.612 4.65745H8.89428L6.44428 9.55773ZM31.2699 22.0185C31.5795 23.5336 33.059 24.511 34.5741 24.2013C36.0892 23.8917 37.0666 22.4125 36.7569 20.8973C36.4473 19.3819 34.9681 18.4046 33.453 18.7145C32.1492 18.9809 31.2129 20.128 31.2132 21.4585C31.2135 21.6468 31.2323 21.8342 31.2699 22.0185ZM7.46832 22.0185C7.77795 23.5336 9.25718 24.511 10.7726 24.2013C12.2877 23.8917 13.265 22.4125 12.9554 20.8973C12.6458 19.3819 11.1665 18.4046 9.65113 18.7145C8.34737 18.9809 7.41135 20.128 7.41164 21.4585C7.41164 21.6468 7.43072 21.8342 7.46832 22.0185ZM1.81119 18.6584H4.61127V20.0585H1.81119V21.4585H6.0116C6.0116 19.139 7.89218 17.2584 10.2117 17.2584C12.5315 17.2584 14.4121 19.139 14.4121 21.4585H29.8131C29.8131 19.139 31.6937 17.2584 34.0135 17.2584C36.3331 17.2584 38.2137 19.139 38.2137 21.4585H41.014V20.0585H38.9138V18.6584H41.014V13.7581H15.112V12.3578H41.014V3.25741C41.014 2.48404 40.3871 1.85709 39.6137 1.85709H10.8096C10.2872 1.85338 9.80751 2.14393 9.56852 2.60824L9.27313 3.25741H11.6118C12.7717 3.25741 13.712 4.19742 13.712 5.35733V8.85757C13.712 10.0175 12.7717 10.9578 11.6118 10.9578H5.52137L2.43274 13.0167C2.41451 13.0286 2.40197 13.0454 2.38516 13.058H3.91139C4.29794 13.058 4.61127 13.3713 4.61127 13.7581V16.5582C4.61127 16.9448 4.29794 17.2581 3.91139 17.2581H1.81119V18.6584ZM1.81119 15.8581H3.21123V14.458H1.81119V15.8581Z" fill="black"/>
<path d="M13.7109 12.3574H10.2107V13.7578H13.7109V12.3574Z" fill="black"/>
<path d="M29.1133 18.6592H15.1123V20.0592H29.1133V18.6592Z" fill="black"/>
</svg>
