<svg width="43" height="31" viewBox="0 0 43 31" fill="none" xmlns="http://www.w3.org/2000/svg">
<path d="M41.9483 29.4509C42.3351 29.4509 42.6484 29.7643 42.6484 30.1511C42.6484 30.5375 42.3351 30.8509 41.9483 30.8509H34.2486C32.6044 30.8512 31.026 30.2065 29.8525 29.0555C29.8032 29.0353 29.7641 28.9962 29.7439 28.9469C28.4176 27.6017 27.7726 25.7278 27.9898 23.851H26.5847C26.5847 23.8917 26.5735 23.9308 26.57 23.9715C26.5075 24.696 25.9009 25.2519 25.1735 25.251H18.1233C17.3956 25.2519 16.7887 24.695 16.7269 23.9699C16.7234 23.9295 16.7157 23.8911 16.7121 23.851H15.307C15.5253 25.74 14.8703 27.6251 13.5283 28.9722C13.5181 28.984 13.5139 29.0001 13.5017 29.0122C13.4899 29.0241 13.4732 29.0289 13.4597 29.0401C13.313 29.1853 13.1592 29.3221 12.9986 29.4509H19.5483C19.9351 29.4509 20.2485 29.7643 20.2485 30.1511C20.2485 30.5375 19.9351 30.8509 19.5483 30.8509H9.04831C7.40448 30.8512 5.82602 30.2065 4.65259 29.0555C4.60324 29.0353 4.56415 28.9962 4.54396 28.9469C2.14583 26.4991 2.15256 22.5805 4.55934 20.141C4.57056 20.1276 4.57472 20.1115 4.58722 20.099C4.60004 20.0865 4.61542 20.083 4.62727 20.0724C4.83908 19.8658 5.06531 19.6741 5.30403 19.4992L4.60068 18.4443C4.06299 18.8522 3.57304 19.3194 3.14046 19.8372C2.76074 20.3019 2.12788 20.4746 1.56488 20.2669C1.00989 20.0686 0.642029 19.5402 0.648438 18.9509V16.2798C0.649399 15.6264 0.801605 14.9817 1.09288 14.3969L3.04721 10.4886C3.24492 10.0964 3.50287 9.73779 3.81177 9.42537C3.82587 9.41127 3.83965 9.39877 3.85503 9.38563C4.11426 9.12544 4.40649 8.90049 4.72372 8.71624L8.36867 6.63086C8.77882 2.24955 15.5509 0.16801 15.8476 0.0782886C16.087 0.00651126 16.3468 0.0680347 16.5289 0.239467C16.7105 0.41122 16.7871 0.666927 16.7298 0.910137C16.6721 1.15367 16.4888 1.34785 16.2494 1.41963C14.6562 1.89675 10.8277 3.56141 9.9388 6.01434L14.7248 4.4189C15.0026 3.36659 16.0399 2.70201 17.112 2.88914C18.1842 3.07627 18.935 4.05264 18.8401 5.13699C18.7456 6.22134 17.8369 7.05255 16.7484 7.05094C16.6525 7.04774 16.5567 7.03813 16.4622 7.02243L14.7953 9.79995L17.013 12.6509H22.0839C23.4877 12.6525 24.8605 12.2369 26.0275 11.4569L28.3929 9.88038C31.7681 7.62997 36.2628 8.07505 39.131 10.9436L39.4383 11.2509H41.2485C42.0217 11.2509 42.6484 11.878 42.6484 12.6509V14.0512C42.6484 14.8244 42.0217 15.4511 41.2485 15.4511H40.9966L40.0943 17.4032C39.9344 17.7746 39.6216 18.0588 39.2368 18.1825C38.8516 18.3062 38.4322 18.2575 38.0858 18.0486C37.8871 17.9284 37.691 17.8198 37.4971 17.7182L37.0911 18.9362C37.6791 19.2339 38.2175 19.6213 38.6866 20.0843C38.6914 20.0891 38.6984 20.0907 38.7032 20.0962C38.7081 20.1019 38.7103 20.108 38.7151 20.1131C41.1533 22.5606 41.1594 26.5173 38.7286 28.9722C38.718 28.984 38.7138 29.0001 38.702 29.0122C38.6898 29.0241 38.6731 29.0289 38.66 29.0401C38.5129 29.1853 38.3591 29.3221 38.1986 29.4509H41.9483ZM37.2494 27.561C37.4942 27.32 37.8788 27.2954 38.1524 27.503C38.6539 26.8423 38.9779 26.0639 39.0939 25.2427C38.7305 25.2196 38.4475 24.9181 38.4475 24.5537C38.4475 24.1897 38.7305 23.8882 39.0939 23.8651C38.9782 23.0451 38.6552 22.2687 38.155 21.6089C37.8823 21.8217 37.4939 21.7977 37.2491 21.5529C37.0046 21.3084 36.9806 20.92 37.1934 20.647C36.5336 20.1471 35.7569 19.8238 34.9372 19.7084C34.9141 20.0718 34.6126 20.3547 34.2486 20.3547C33.8842 20.3547 33.5827 20.0718 33.5596 19.7084C32.7384 19.8244 31.96 20.1484 31.2993 20.6499C31.514 20.9219 31.4909 21.3116 31.2461 21.5567C31.0013 21.8018 30.612 21.8252 30.3396 21.6109C29.8407 22.2703 29.5183 23.0458 29.403 23.8645C29.7663 23.8875 30.0493 24.1891 30.0493 24.5531C30.0493 24.9171 29.7663 25.2186 29.403 25.242C29.519 26.0623 29.8426 26.8394 30.3431 27.4995C30.6158 27.2931 30.9987 27.3197 31.2403 27.5613C31.4819 27.8029 31.5082 28.1858 31.3022 28.4585C31.9623 28.9591 32.7393 29.2827 33.5596 29.3984C33.5827 29.035 33.8842 28.7524 34.2486 28.7524C34.6126 28.7524 34.9141 29.035 34.9372 29.3984C35.7552 29.2821 36.5301 28.9591 37.1886 28.4598C36.9841 28.1862 37.0101 27.8045 37.2494 27.561ZM25.1742 23.8686C25.2312 23.148 25.3745 22.4373 25.6013 21.7509H17.6984C17.924 22.4312 18.0669 23.1364 18.1233 23.851L25.1742 23.8686ZM12.955 21.6089C12.6824 21.8217 12.294 21.7977 12.0492 21.5529C11.8047 21.3084 11.7807 20.92 11.9934 20.647C11.3336 20.1471 10.5569 19.8238 9.73724 19.7084C9.71417 20.0718 9.41264 20.3547 9.04831 20.3547C8.6843 20.3547 8.38277 20.0718 8.3597 19.7084C7.5381 19.8244 6.76009 20.1484 6.09935 20.6499C6.31372 20.9219 6.29097 21.3116 6.04616 21.5567C5.80135 21.8018 5.41202 21.8252 5.13965 21.6109C4.64073 22.2703 4.31837 23.0458 4.20302 23.8645C4.56639 23.8875 4.84933 24.1891 4.84933 24.5531C4.84933 24.9171 4.56639 25.2186 4.20302 25.242C4.31902 26.0623 4.64265 26.8394 5.14317 27.4995C5.41554 27.2931 5.79846 27.3197 6.04039 27.5613C6.282 27.8029 6.30827 28.1858 6.10223 28.4585C6.76233 28.9591 7.53938 29.2827 8.3597 29.3984C8.38277 29.035 8.6843 28.7524 9.04831 28.7524C9.41264 28.7524 9.71417 29.035 9.73724 29.3984C10.5553 29.2821 11.3301 28.9591 11.9883 28.4598C11.7797 28.1868 11.8056 27.8013 12.0489 27.5588C12.2921 27.3159 12.6776 27.2909 12.9502 27.5001C13.4517 26.8394 13.776 26.0614 13.8917 25.2398C13.5283 25.2167 13.2454 24.9152 13.2454 24.5512C13.2454 24.1868 13.5283 23.8853 13.8917 23.8622C13.777 23.0426 13.4546 22.2661 12.955 21.606V21.6089ZM6.51527 18.7901C8.88425 17.7426 11.6538 18.2575 13.4879 20.0872C13.4927 20.092 13.4998 20.0933 13.5046 20.099C13.5094 20.1045 13.5116 20.1109 13.5164 20.1157C14.1708 20.7768 14.671 21.5743 14.9808 22.451H16.451C15.5015 19.147 12.4859 16.8659 9.04831 16.8511C7.90724 16.861 6.78572 17.1472 5.77956 17.6855L6.51527 18.7901ZM4.49846 10.7757C4.42316 10.884 4.35587 10.9974 4.29691 11.1153L3.39104 12.9261L6.93376 11.8809L4.49846 10.7757ZM13.7007 8.90306L15.216 6.37771C15.0715 6.22134 14.9514 6.04414 14.8591 5.85188L10.7549 7.21981L13.7007 8.90306ZM17.4485 4.95114C17.4485 4.56437 17.1351 4.25099 16.7484 4.25099C16.3619 4.25099 16.0485 4.56437 16.0485 4.95114C16.0485 5.33758 16.3619 5.65097 16.7484 5.65097C17.1351 5.65097 17.4485 5.33758 17.4485 4.95114ZM33.1129 9.8509C31.7091 9.84962 30.3364 10.2652 29.1694 11.0452L26.8039 12.6217C25.4068 13.5551 23.7639 14.0528 22.0839 14.0512H18.1022L18.9802 15.18C19.1135 15.3502 19.3176 15.4502 19.5339 15.4511H25.4251C25.5629 15.4508 25.6978 15.4101 25.8128 15.3335L31.4079 11.6011C31.7517 11.3726 32.1555 11.2512 32.5685 11.2509H37.3382C36.118 10.3405 34.6357 9.8493 33.1129 9.8509ZM41.2485 12.6509H39.8485L40.8985 14.0512H41.2485V12.6509ZM38.8144 16.8341L39.7379 14.8365L38.0986 12.6509H32.5685C32.4304 12.6512 32.2955 12.6919 32.1805 12.7685L26.5889 16.5009C26.2441 16.73 25.8391 16.8518 25.4251 16.8511H19.5339C18.885 16.853 18.2723 16.5538 17.8753 16.0404L13.4809 10.3908L9.04831 7.85684L5.68855 9.78105L7.49805 10.6001C8.04375 10.8305 8.38533 11.3797 8.35104 11.9715C8.31644 12.5631 7.91301 13.0687 7.34392 13.234L2.53836 14.6398L2.34738 15.0227C2.15192 15.414 2.05034 15.8453 2.05066 16.2827L2.06732 18.9391C3.93706 16.5076 6.92447 15.2063 9.97821 15.4931C13.032 15.7796 15.7249 17.6141 17.1095 20.3509H26.1906C27.7604 17.35 30.8619 15.4643 34.2486 15.4511C35.8693 15.4793 37.4503 15.9584 38.8144 16.8341ZM36.2048 17.168C35.5736 16.9597 34.9131 16.8527 34.2486 16.8511C30.81 16.8649 27.7934 19.1464 26.844 22.451H28.3138C28.6211 21.5852 29.1136 20.7966 29.7574 20.141C29.7686 20.1276 29.7727 20.1115 29.7852 20.099C29.7977 20.0865 29.8131 20.083 29.8253 20.0724C31.3829 18.519 33.6445 17.9021 35.7751 18.4498L36.2048 17.168Z" fill="black"/>
<path d="M27.2491 29.4502C27.6358 29.4502 27.9492 29.7636 27.9492 30.1503C27.9492 30.5368 27.6358 30.8502 27.2491 30.8502H22.3493C21.9625 30.8502 21.6492 30.5368 21.6492 30.1503C21.6492 29.7636 21.9625 29.4502 22.3493 29.4502H27.2491Z" fill="black"/>
<path d="M34.2508 27.3512C32.7044 27.3512 31.4505 26.0974 31.4505 24.5513C31.4505 23.0048 32.7044 21.751 34.2508 21.751C35.7972 21.751 37.0508 23.0048 37.0508 24.5513C37.0508 26.0974 35.7972 27.3512 34.2508 27.3512ZM34.2508 23.151C33.4776 23.151 32.8508 23.778 32.8508 24.5513C32.8508 25.3245 33.4776 25.9512 34.2508 25.9512C35.024 25.9512 35.6508 25.3245 35.6508 24.5513C35.6508 23.778 35.024 23.151 34.2508 23.151Z" fill="black"/>
<path d="M9.05128 27.3512C7.50487 27.3512 6.25133 26.0974 6.25133 24.5513C6.25133 23.0048 7.50487 21.751 9.05128 21.751C10.5977 21.751 11.8516 23.0048 11.8516 24.5513C11.8516 26.0974 10.5977 27.3512 9.05128 27.3512ZM9.05128 23.151C8.27808 23.151 7.65131 23.778 7.65131 24.5513C7.65131 25.3245 8.27808 25.9512 9.05128 25.9512C9.82449 25.9512 10.4513 25.3245 10.4513 24.5513C10.4513 23.778 9.82449 23.151 9.05128 23.151Z" fill="black"/>
</svg>
