<svg width="43" height="26" viewBox="0 0 43 26" fill="none" xmlns="http://www.w3.org/2000/svg">
<path d="M34.382 5.33945C34.1785 5.37218 34.0044 5.50326 33.9167 5.68964L33.3763 6.83799C33.2296 7.14971 33.3634 7.52122 33.6751 7.6679C33.9868 7.81457 34.3583 7.68077 34.5049 7.36906L34.9051 6.51856L41.8151 5.40663C42.1174 5.35799 42.3397 5.09705 42.3397 4.79083V2.79493C42.3397 2.45048 42.0605 2.17125 41.716 2.17125H33.4831C33.4256 2.17125 33.3684 2.17921 33.313 2.19487L26.2597 4.19348L18.228 3.40089C16.5671 3.23601 14.9582 3.92089 13.9243 5.23305L13.2577 6.07904C13.0935 6.02441 12.9285 5.97478 12.7633 5.93278C12.5851 5.88742 12.4038 5.84911 12.2202 5.81621L13.7829 1.16407C13.8527 0.956454 13.8084 0.727506 13.6664 0.560819C13.5242 0.394132 13.3053 0.314398 13.0891 0.350245C9.34562 0.974255 5.99269 3.17957 3.39289 6.72774C1.38616 9.46659 0.481526 12.0999 0.383909 12.3943L0.377347 12.4134L0.376034 12.4172C0.335921 12.5307 0.327144 12.6545 0.359874 12.7703C0.461757 13.1303 0.813341 13.306 1.13269 13.2178L5.11143 12.1217C6.47347 11.7464 7.87924 11.7694 9.18845 12.1634L8.89101 12.8587C8.15806 12.6242 7.36991 12.5143 6.55083 12.5571C3.18887 12.7331 0.482428 15.4726 0.348308 18.8364C0.195156 22.6784 3.36869 25.8338 7.21692 25.6506C10.5842 25.4901 13.3042 22.7548 13.4471 19.3867C13.5571 16.7909 12.1482 14.5068 10.0373 13.3503L10.3483 12.6234C10.7379 12.8176 11.1139 13.0472 11.4715 13.3126C13.2717 14.6482 14.3364 16.6882 14.3926 18.9137C14.3945 18.9764 14.3952 19.0398 14.3952 19.1032C14.3952 20.3416 14.0873 21.5676 13.5046 22.6504C13.4217 22.8045 13.3943 22.9858 13.4471 23.1525C13.5315 23.4188 13.775 23.5903 14.0427 23.5903H15.728C16.0724 23.5903 16.3516 23.3111 16.3516 22.9667C16.3516 22.6222 16.0724 22.343 15.728 22.343H15.0218C15.4299 21.3176 15.6426 20.2145 15.6426 19.1033C15.6426 19.0265 15.6417 18.9496 15.6393 18.878C15.5734 16.2705 14.3251 13.8769 12.2147 12.3109C10.0658 10.7166 7.35572 10.2093 4.77978 10.9192L2.08613 11.6612C2.89356 10.2723 4.26167 9.02641 5.98859 8.13711C8.13723 7.0306 10.5551 6.65867 12.4557 7.14191C14.6178 7.69185 16.8507 9.66962 17.5476 10.3264C17.5123 10.6023 17.4944 10.8823 17.4944 11.1625C17.4944 14.7769 20.4349 17.7173 24.0493 17.7173C24.2439 17.7173 24.4385 17.7088 24.6311 17.6918C25.7902 19.6617 26.3943 21.4012 26.6685 22.3431H18.639C18.2945 22.3431 18.0153 22.6223 18.0153 22.9667C18.0153 23.3112 18.2945 23.5904 18.639 23.5904H27.4564C27.5716 23.5904 27.6871 23.565 27.7863 23.5063C28.023 23.3663 28.1342 23.1007 28.0846 22.8472C28.0712 22.778 27.8653 21.7554 27.2614 20.2326L29.3074 20.1115C29.8098 23.3719 32.7094 25.8149 36.1082 25.6502C39.4527 25.4881 42.1619 22.7846 42.3304 19.4405C42.5202 15.6736 39.5103 12.5485 35.7842 12.5485C33.5904 12.5485 31.5607 13.6421 30.3493 15.4392L28.0431 14.1857L32.0976 12.1689C32.2234 12.1064 32.3245 12.0032 32.3842 11.8761L33.4347 9.64353C33.5814 9.33181 33.4476 8.96029 33.1359 8.81362C32.8242 8.66695 32.4527 8.80074 32.3061 9.11246L31.3479 11.1486L21.7273 15.9339C19.9614 15.071 18.7419 13.2567 18.7419 11.1626C18.7419 10.8428 18.7705 10.5238 18.8268 10.2144C18.8632 10.0148 18.8002 9.80997 18.6579 9.66535C18.6008 9.60719 17.92 8.92158 16.9054 8.14048L20.0328 7.2543L21.6388 8.47836C22.2266 8.92642 22.9362 9.15315 23.6473 9.15315C24.2617 9.15315 24.8774 8.98392 25.4169 8.64218L33.6639 3.4191H41.0923V4.25984L34.382 5.33945ZM9.91795 19.103C9.91795 20.7681 8.56338 22.1227 6.89823 22.1227C5.23309 22.1227 3.87851 20.7682 3.87851 19.103C3.87851 17.4379 5.23309 16.0833 6.89823 16.0833C7.09962 16.0833 7.29633 16.1035 7.48689 16.1414L6.32483 18.8577C6.1894 19.1745 6.33632 19.541 6.65296 19.6765C6.73294 19.7108 6.81612 19.7269 6.89798 19.7269C7.14014 19.7269 7.3704 19.585 7.47171 19.3483L8.63302 16.6335C9.40936 17.1806 9.91795 18.0832 9.91795 19.103ZM12.206 19.103C12.206 22.0296 9.82501 24.4107 6.89831 24.4107C3.97161 24.4107 1.59067 22.0297 1.59067 19.103C1.59067 16.1763 3.97161 13.7954 6.89823 13.7954C7.41888 13.7954 7.92181 13.8721 8.39751 14.0124L7.98506 14.9767C7.63782 14.8852 7.27377 14.836 6.89823 14.836C4.54534 14.836 2.63106 16.7502 2.63106 19.1032C2.63106 21.4561 4.54526 23.3702 6.89823 23.3702C9.25121 23.3702 11.1654 21.456 11.1654 19.103C11.1654 17.5683 10.3507 16.2206 9.13136 15.4687L9.54373 14.5046C11.1332 15.4226 12.206 17.1394 12.206 19.103ZM5.41757 7.02805C4.99397 7.24618 4.58955 7.48488 4.20573 7.74066C5.91222 5.3287 8.52179 2.7622 12.2531 1.80113L10.9479 5.68677C9.16393 5.63517 7.22808 6.09569 5.41757 7.02805ZM35.7842 13.7957C38.7106 13.7957 41.0915 16.1765 41.0915 19.103C41.0915 22.0295 38.7107 24.4103 35.7842 24.4103C33.187 24.4103 31.0029 22.5339 30.5606 20.037L31.6068 19.9751C32.0109 21.922 33.7389 23.3699 35.7842 23.3699C38.137 23.3699 40.0512 21.4557 40.0512 19.1029C40.0512 16.7501 38.137 14.8359 35.7842 14.8359C34.4302 14.8359 33.1723 15.4758 32.3733 16.539L31.4516 16.0379C32.4395 14.6415 34.0483 13.7957 35.7842 13.7957ZM36.0822 18.555L33.4863 17.1439C34.0535 16.4787 34.889 16.0834 35.7842 16.0834C37.4492 16.0834 38.8037 17.4379 38.8037 19.1029C38.8037 20.7679 37.4492 22.1225 35.7842 22.1225C34.4006 22.1225 33.2227 21.1859 32.8718 19.9001L35.8214 19.7255C36.0993 19.7091 36.3326 19.5104 36.3933 19.2387C36.4537 18.967 36.3269 18.6879 36.0822 18.555ZM26.6792 14.8638L33.57 18.6092L26.7357 19.0138C26.401 18.297 25.9905 17.5147 25.4894 16.6978C25.3578 16.4835 25.1104 16.3688 24.862 16.4076C24.5972 16.4488 24.3238 16.4696 24.0493 16.4696C23.866 16.4696 23.6848 16.4601 23.5061 16.4419L26.6792 14.8638ZM15.587 7.2173C15.2256 6.98991 14.8454 6.77253 14.4531 6.57771L14.9042 6.00529C15.6732 5.02929 16.8699 4.51971 18.1053 4.64243L22.9774 5.12322L15.587 7.2173ZM24.7495 7.58816C24.0241 8.04762 23.0778 8.00652 22.3949 7.48603L21.5329 6.82905L29.5212 4.56598L24.7495 7.58816Z" fill="black"/>
<path d="M20.1446 20.489H18.9161L18.1406 18.8675H20.0199C20.3643 18.8675 20.6435 18.5882 20.6435 18.2438C20.6435 17.8994 20.3643 17.6201 20.0199 17.6201H17.151C16.9367 17.6201 16.7376 17.73 16.6234 17.9112C16.5092 18.0925 16.496 18.3197 16.5883 18.5129L17.9604 21.3818C18.0639 21.5985 18.2828 21.7364 18.523 21.7364H20.1446C20.489 21.7364 20.7682 21.4572 20.7682 21.1127C20.7683 20.7682 20.489 20.489 20.1446 20.489Z" fill="black"/>
</svg>
