<svg width="43" height="19" viewBox="0 0 43 19" fill="none" xmlns="http://www.w3.org/2000/svg">
<path d="M39.4446 9.6421C39.3495 9.3564 39.082 9.16355 38.7809 9.16327H37.1658L35.2365 4.01654C35.1337 3.74337 34.8722 3.56249 34.5805 3.56277H33.3342L33.8664 0.902816C33.9438 0.523962 33.6994 0.154223 33.3206 0.0767427C33.2744 0.0673426 33.2274 0.0625 33.1801 0.0625H31.0802C30.8674 0.0625 30.6663 0.159065 30.5333 0.325134L27.9431 3.56306H26.1796V0.0625H24.7795V3.56306H14.9786C14.7584 3.56306 14.5508 3.66674 14.4186 3.84307L10.4284 9.16355H0.977512C0.590682 9.16355 0.277344 9.47689 0.277344 9.86343C0.277344 10.0386 0.343145 10.2075 0.461644 10.3369L8.16236 18.7375C8.29482 18.8822 8.48196 18.9642 8.67823 18.9642H41.5813C41.9679 18.9639 42.2809 18.6503 42.2806 18.2637C42.2806 18.1885 42.2687 18.1142 42.2447 18.043L39.4446 9.6421ZM31.4163 1.46284H32.3262L31.9063 3.56277H29.736L31.4163 1.46284ZM13.2285 7.76321H22.6793V6.36316H14.2787L15.3287 4.96311H34.0954L35.6706 9.16327H12.1785L13.2285 7.76321ZM2.5687 10.5636H38.2762L39.6762 14.7638H6.41906L2.5687 10.5636ZM8.98558 17.5641L7.70232 16.1638H40.1431L40.6094 17.5641H8.98558Z" fill="black"/>
<path d="M7.98047 11.9639H9.38081V13.3639H7.98047V11.9639Z" fill="black"/>
<path d="M10.7773 11.9639H12.1774V13.3639H10.7773V11.9639Z" fill="black"/>
<path d="M13.5781 11.9639H14.9782V13.3639H13.5781V11.9639Z" fill="black"/>
<path d="M16.3789 11.9639H17.779V13.3639H16.3789V11.9639Z" fill="black"/>
<path d="M24.082 6.36328H25.4824V7.76333H24.082V6.36328Z" fill="black"/>
<path d="M26.8789 6.36328H28.279V7.76333H26.8789V6.36328Z" fill="black"/>
<path d="M29.6797 6.36328H31.0797V7.76333H29.6797V6.36328Z" fill="black"/>
<path d="M30.3789 11.9639H31.7792V13.3639H30.3789V11.9639Z" fill="black"/>
<path d="M33.1836 11.9639H34.5837V13.3639H33.1836V11.9639Z" fill="black"/>
<path d="M24.7812 11.9639H26.1816V13.3639H24.7812V11.9639Z" fill="black"/>
<path d="M21.9766 11.9639H23.3766V13.3639H21.9766V11.9639Z" fill="black"/>
<path d="M19.1797 11.9639H20.5797V13.3639H19.1797V11.9639Z" fill="black"/>
<path d="M27.5781 11.9639H28.9782V13.3639H27.5781V11.9639Z" fill="black"/>
</svg>
