<svg width="43" height="26" viewBox="0 0 43 26" fill="none" xmlns="http://www.w3.org/2000/svg">
<path d="M11.6188 12.4793C11.5248 12.8545 11.7527 13.2347 12.1278 13.3284C12.1834 13.3424 12.2407 13.3495 12.2979 13.3495H15.098C15.4848 13.3495 15.7981 13.0362 15.7981 12.6496V9.84929C15.7981 9.46275 15.4845 9.14941 15.098 9.14941H12.9981C12.6768 9.14941 12.397 9.36789 12.319 9.67923L11.6188 12.4793ZM13.5447 10.5495H14.3981V11.9495H13.1949L13.5447 10.5495Z" fill="black"/>
<path d="M12.9961 14.749H15.7962V16.1493H12.9961V14.749Z" fill="black"/>
<path d="M6.34711 20.3496C5.76716 20.3496 5.29688 20.8199 5.29688 21.3999C5.29688 21.9795 5.76716 22.4498 6.34711 22.4498C6.92678 22.4498 7.39707 21.9795 7.39707 21.3999C7.39707 20.8199 6.92707 20.3496 6.34711 20.3496Z" fill="black"/>
<path d="M28.7455 20.3496C28.1656 20.3496 27.6953 20.8199 27.6953 21.3999C27.6953 21.9795 28.1656 22.4498 28.7455 22.4498C29.3255 22.4498 29.7954 21.9795 29.7954 21.3999C29.7954 20.8199 29.3255 20.3496 28.7455 20.3496Z" fill="black"/>
<path d="M40.7922 17.7544C40.6609 17.6231 40.4829 17.5494 40.2972 17.5494H21.396V4.94845H22.0961C22.4171 4.94845 22.6969 4.72997 22.7749 4.41834L23.4751 1.61826C23.5691 1.24312 23.3412 0.863126 22.966 0.769126C22.9105 0.755168 22.8532 0.748047 22.796 0.748047H20.6958C18.7637 0.750326 17.1978 2.31615 17.1956 4.24828V6.34848H12.4605C11.6643 6.34563 10.936 6.79598 10.5822 7.50925L9.02178 10.6292L3.48231 11.739C2.50242 11.937 1.79685 12.7972 1.79457 13.797V14.6237C0.91837 15.2258 0.394816 16.2208 0.394531 17.2839V21.0496C0.394531 21.4361 0.707866 21.7495 1.09469 21.7495H2.51211C2.71463 23.8662 4.59493 25.4181 6.71165 25.2155C8.54836 25.0398 10.002 23.5862 10.1777 21.7495H11.5954V23.8497C11.5954 24.2362 11.9087 24.5495 12.2953 24.5495H17.8957C18.2825 24.5495 18.5959 24.2362 18.5959 23.8497V23.1495H25.3212C26.2828 25.0409 28.5958 25.7943 30.4872 24.8327C31.0507 24.5461 31.5349 24.1245 31.8967 23.6061C33.1124 25.3474 35.5094 25.7735 37.251 24.5581C38.1819 23.9081 38.7781 22.88 38.8798 21.7495H41.6975C42.084 21.7495 42.3974 21.4361 42.3974 21.0496V19.6493C42.3974 19.4638 42.3236 19.2858 42.1923 19.1545L40.7922 17.7544ZM3.35982 18.9893C3.21683 19.1679 3.09007 19.359 2.98125 19.5604C2.97214 19.5772 2.95875 19.592 2.95049 19.6088C2.83427 19.8339 2.74056 20.0697 2.67048 20.313C2.67048 20.3255 2.65994 20.3369 2.65567 20.3494H1.79457V18.9494H3.38574C3.37606 18.9619 3.36979 18.9767 3.35982 18.9893ZM6.34505 23.8497C4.99173 23.8497 3.89477 22.7527 3.89477 21.3997C3.89648 21.349 3.90189 21.2983 3.91015 21.2484L3.9261 21.1274C4.06653 19.7914 5.26319 18.8223 6.59885 18.9625C7.7411 19.0824 8.6435 19.9851 8.76371 21.1274L8.77966 21.2484C8.78821 21.2983 8.79333 21.349 8.79504 21.3997C8.79504 22.7527 7.69809 23.8497 6.34505 23.8497ZM11.5954 20.3494H10.0341C10.0299 20.3369 10.023 20.3258 10.0193 20.313C9.94925 20.0697 9.85554 19.8339 9.73932 19.6088C9.73106 19.5926 9.7191 19.5786 9.70998 19.5627C9.60088 19.3604 9.47356 19.1684 9.32999 18.9893C9.32002 18.9767 9.31376 18.9619 9.30407 18.9494H11.5954V20.3494ZM17.1956 22.4496V23.1495H12.9954V21.7495H17.1956V22.4496ZM17.1956 20.3494H12.9954V18.9494H17.1956V20.3494ZM17.1956 17.5494H1.79457V17.2819C1.79571 16.2701 2.61579 15.4503 3.62729 15.4492H6.52992C7.22466 15.4463 7.86045 15.8394 8.16866 16.4621L9.42171 15.8363C8.87623 14.7387 7.75534 14.046 6.52992 14.0491H3.62729C3.48231 14.054 3.33789 14.0685 3.19489 14.0924V13.797C3.19432 13.464 3.42847 13.1769 3.75491 13.1103L9.63507 11.935C9.84728 11.8928 10.0282 11.7552 10.1253 11.5618L11.8384 8.13592C11.9563 7.89978 12.1967 7.75023 12.4605 7.74881H17.1958V17.5494H17.1956ZM18.5959 7.04864V4.24828C18.5959 3.08837 19.5362 2.14808 20.6958 2.14808H21.8993L21.5492 3.54841H20.6958C20.3092 3.54841 19.9959 3.86174 19.9959 4.24828V17.5494H18.5956V7.04864H18.5959ZM24.8962 21.0496V21.7495H18.5959V18.9494H24.8962V21.0496ZM28.7465 23.8497C27.3932 23.8497 26.2962 22.7527 26.2962 21.3997C26.2982 21.349 26.3033 21.2983 26.3116 21.2484L26.3278 21.1274C26.468 19.7914 27.6646 18.8223 29.0006 18.9625C30.1426 19.0824 31.0452 19.9851 31.1652 21.1274L31.1811 21.2484C31.1897 21.2983 31.1948 21.349 31.1965 21.3997C31.1965 22.7527 30.0995 23.8497 28.7465 23.8497ZM32.0422 19.0104L32.0009 19.0656C31.9659 19.1109 31.9311 19.1559 31.8967 19.2055C31.8639 19.1579 31.8266 19.1132 31.7924 19.0656L31.7511 19.0104C31.7352 18.9898 31.7212 18.969 31.7055 18.9494H32.0878C32.0724 18.969 32.0585 18.9898 32.0422 19.0104ZM35.0468 23.8497C33.6938 23.8497 32.5968 22.7527 32.5968 21.3997C32.5985 21.349 32.6037 21.2983 32.6122 21.2484L32.6282 21.1274C32.7686 19.7914 33.965 18.8223 35.3009 18.9625C36.4432 19.0824 37.3456 19.9851 37.4655 21.1274L37.4817 21.2484C37.49 21.2983 37.4951 21.349 37.4971 21.3997C37.4971 22.7527 36.4001 23.8497 35.0468 23.8497ZM40.9973 20.3494H38.7362C38.7319 20.3369 38.7248 20.3258 38.7214 20.313C38.6513 20.0697 38.5576 19.8339 38.4414 19.6088C38.4331 19.5926 38.4212 19.5786 38.412 19.5627C38.3029 19.3604 38.1756 19.1684 38.032 18.9893C38.0221 18.9767 38.0158 18.9619 38.0061 18.9494H40.0075L40.9973 19.9392V20.3494Z" fill="black"/>
<path d="M35.0461 20.3496C34.4661 20.3496 33.9961 20.8199 33.9961 21.3999C33.9961 21.9795 34.4661 22.4498 35.0461 22.4498C35.626 22.4498 36.0963 21.9795 36.0963 21.3999C36.0963 20.8199 35.626 20.3496 35.0461 20.3496Z" fill="black"/>
</svg>
