<svg width="50" height="25" viewBox="0 0 50 25" fill="none" xmlns="http://www.w3.org/2000/svg">
<path d="M13.3372 15.8506H10.8521V16.7324H12.452C12.9426 16.7324 13.3372 16.3393 13.3372 15.8506Z" fill="#BC2525"/>
<path d="M8.47367 15.8506H5.99921V16.7324H7.59908C8.0897 16.7324 8.47367 16.3393 8.47367 15.8506Z" fill="#BC2525"/>
<path d="M18.1903 15.8506H15.7051V16.7324H17.305C17.7956 16.7324 18.1903 16.3393 18.1903 15.8506Z" fill="#BC2525"/>
<path d="M23.0432 15.8506H20.558V16.7324H22.1579C22.6485 16.7324 23.0432 16.3393 23.0432 15.8506Z" fill="#BC2525"/>
<path d="M27.896 15.8506H25.4109V16.7324H27.0107C27.5014 16.7324 27.896 16.3393 27.896 15.8506Z" fill="#BC2525"/>
<path d="M32.7597 15.8506H30.2746V16.7324H31.8745C32.3651 16.7324 32.7597 16.3393 32.7597 15.8506Z" fill="#BC2525"/>
<path d="M37.6126 15.8506H35.1275V16.7324H36.7274C37.218 16.7324 37.6126 16.3393 37.6126 15.8506Z" fill="#BC2525"/>
<path d="M43.6495 18.3259C43.9735 18.3259 44.2362 18.0643 44.2362 17.7416C44.2362 17.4188 43.9735 17.1572 43.6495 17.1572C43.3256 17.1572 43.0629 17.4188 43.0629 17.7416C43.0629 18.0643 43.3256 18.3259 43.6495 18.3259Z" fill="#BC2525"/>
<path d="M4.12412 20.8231C4.86006 20.1325 6.01197 20.1325 6.74791 20.8231C7.81449 21.8112 9.47835 21.8112 10.5449 20.8231C11.2809 20.1325 12.4328 20.1325 13.1687 20.8231C14.2353 21.8112 15.8992 21.8112 16.9657 20.8231C17.7017 20.1325 18.8536 20.1325 19.5895 20.8231C20.6561 21.8112 22.32 21.8112 23.3866 20.8231C24.1225 20.1325 25.2744 20.1325 26.0103 20.8231C27.0769 21.8112 28.7408 21.8112 29.8074 20.8231C30.5433 20.1325 31.6952 20.1325 32.4311 20.8231C32.9644 21.3224 33.6471 21.5668 34.3297 21.5668C35.0123 21.5668 35.6949 21.3224 36.2282 20.8231C36.9641 20.1325 38.116 20.1325 38.852 20.8231C39.9185 21.8112 41.5824 21.8112 42.649 20.8231C43.3849 20.1325 44.5368 20.1325 45.2728 20.8231C46.3394 21.8112 48.0032 21.8112 49.0698 20.8231C49.2404 20.6637 49.2511 20.3981 49.0911 20.2175C48.9311 20.0369 48.6645 20.0369 48.4832 20.1962C47.7472 20.8868 46.5953 20.8868 45.8594 20.1962C45.7527 20.1006 45.6461 20.0156 45.5288 19.9412L48.7498 16.2652C48.8565 16.1377 48.8885 15.9571 48.8138 15.8083C48.7498 15.6596 48.5898 15.564 48.4298 15.564H44.9101L42.009 11.8135C41.9237 11.7073 41.8064 11.6435 41.6677 11.6435H41.4224L40.3558 9.60363C40.2812 9.46551 40.1319 9.38051 39.9825 9.38051H38.9586L37.892 7.34061C37.8174 7.20249 37.6681 7.1175 37.5187 7.1175H36.1642L35.0976 5.0776C35.0229 4.93948 34.8736 4.85448 34.7243 4.85448H20.2508C20.0162 4.85448 19.8242 5.04573 19.8242 5.27946V7.12812H16.1231V1.13592C16.1231 0.902178 15.9312 0.710938 15.6965 0.710938H10.4169C10.1823 0.710938 9.99031 0.902178 9.99031 1.13592V7.10687H5.02005C4.7854 7.10687 4.59342 7.29811 4.59342 7.53185V9.38051H4.08146C3.84681 9.38051 3.65483 9.57175 3.65483 9.80549V11.6542H3.06821C2.83356 11.6542 2.64157 11.8454 2.64157 12.0791V14.1297H2.10828C1.90563 14.1297 1.73498 14.2678 1.69232 14.459L1.00971 17.487C0.988376 17.572 0.999042 17.657 1.03104 17.742L2.24694 20.7275C1.76698 20.7275 1.28702 20.5575 0.924381 20.2175C0.753729 20.0581 0.487084 20.0687 0.316431 20.2387C0.145778 20.4087 0.16711 20.6743 0.337762 20.8443C1.38301 21.8218 3.05754 21.8218 4.12412 20.8231ZM20.6774 5.29009H34.351L35.2043 7.10687H20.6774V5.29009ZM15.2699 1.5609V3.11207H10.8436V1.5609H15.2699ZM10.8436 3.5158H15.2699V7.09625H10.8436V3.5158ZM5.44668 7.95683H37.2734L38.02 9.38051H5.44668V7.95683ZM4.50809 9.83737H39.7479L40.4945 11.6435H4.50809V9.83737ZM3.49484 12.1748H41.4757L43.8436 15.564H40.8998L38.6493 14.034C38.5853 13.9915 38.5 13.9597 38.4253 13.9597H3.49484V12.1748ZM1.86297 17.5401L2.44959 14.969H38.308L40.5585 16.3502C40.6225 16.3927 40.7078 16.4139 40.7825 16.4139H47.5019L44.7395 19.5694C43.8329 19.3144 42.809 19.5269 42.073 20.2069C41.3371 20.8974 40.1852 20.8974 39.4492 20.2069C38.3827 19.2188 36.7188 19.2188 35.6522 20.2069C34.9163 20.8974 33.7644 20.8974 33.0284 20.2069C31.9619 19.2188 30.298 19.2188 29.2314 20.2069C28.4955 20.8974 27.3436 20.8974 26.6076 20.2069C25.541 19.2188 23.8772 19.2188 22.8106 20.2069C22.0747 20.8974 20.9228 20.8974 20.1868 20.2069C19.1202 19.2188 17.4564 19.2188 16.3898 20.2069C15.6538 20.8974 14.5019 20.8974 13.766 20.2069C12.6994 19.2188 11.0356 19.2188 9.96898 20.2069C9.23304 20.8974 8.08113 20.8974 7.34519 20.2069C6.27861 19.2188 4.61475 19.2188 3.54817 20.2069C3.40951 20.3344 3.24953 20.4406 3.08954 20.5256L1.86297 17.5401Z" fill="#BC2525"/>
<path d="M48.5025 23.6703C47.7666 24.1059 46.6147 24.1059 45.8787 23.6703C44.8122 23.0435 43.1483 23.0435 42.0817 23.6703C41.3458 24.1059 40.1939 24.1059 39.4579 23.6703C38.3913 23.0435 36.7275 23.0435 35.6609 23.6703C34.925 24.1059 33.7731 24.1059 33.0371 23.6703C31.9705 23.0435 30.3067 23.0435 29.2401 23.6703C28.5041 24.1059 27.3522 24.1059 26.6163 23.6703C25.5497 23.0435 23.8859 23.0435 22.8193 23.6703C22.0833 24.1059 20.9314 24.1059 20.1955 23.6703C19.1289 23.0435 17.465 23.0435 16.3985 23.6703C15.6625 24.1059 14.5106 24.1059 13.7747 23.6703C12.7081 23.0435 11.0442 23.0435 9.97765 23.6703C9.24171 24.1059 8.0898 24.1059 7.35386 23.6703C6.28728 23.0435 4.62342 23.0435 3.55684 23.6703C2.8209 24.1059 1.66899 24.1059 0.933052 23.6703C0.762399 23.5641 0.495754 23.5747 0.325101 23.681C0.165114 23.7872 0.17578 23.9572 0.346433 24.0634C1.41301 24.6903 3.07688 24.6903 4.14346 24.0634C4.8794 23.6278 6.0313 23.6278 6.76724 24.0634C7.83382 24.6903 9.49769 24.6903 10.5643 24.0634C11.3002 23.6278 12.4521 23.6278 13.1881 24.0634C14.2546 24.6903 15.9185 24.6903 16.9851 24.0634C17.721 23.6278 18.8729 23.6278 19.6089 24.0634C20.6754 24.6903 22.3393 24.6903 23.4059 24.0634C24.1418 23.6278 25.2937 23.6278 26.0297 24.0634C27.0963 24.6903 28.7601 24.6903 29.8267 24.0634C30.5626 23.6278 31.7146 23.6278 32.4505 24.0634C32.9838 24.3822 33.6664 24.5309 34.349 24.5309C35.0316 24.5309 35.7142 24.3715 36.2475 24.0634C36.9835 23.6278 38.1354 23.6278 38.8713 24.0634C39.9379 24.6903 41.6017 24.6903 42.6683 24.0634C43.4043 23.6278 44.5562 23.6278 45.2921 24.0634C46.3587 24.6903 48.0226 24.6903 49.0891 24.0634C49.2598 23.9572 49.2705 23.7872 49.1105 23.681C48.9505 23.5747 48.6732 23.5641 48.5025 23.6703Z" fill="#BC2525"/>
</svg>
