<svg width="28" height="25" viewBox="0 0 28 25" fill="none" xmlns="http://www.w3.org/2000/svg">
<g clip-path="url(#clip0)">
<path d="M20.5691 0.761814C20.8376 0.761814 21.0939 0.9078 21.2159 1.13894L27.0254 11.6743C27.2207 12.0271 27.0864 12.4772 26.7325 12.6719L25.1581 13.5356V10.6159C25.1581 9.13169 23.9498 7.9273 22.4608 7.9273H7.3268L20.2029 0.859138C20.3128 0.79831 20.4348 0.761814 20.5691 0.761814ZM20.5691 0.360352C20.386 0.360352 20.1907 0.409014 20.0198 0.506338L5.74017 8.32877H22.4608C23.7301 8.32877 24.7553 9.35067 24.7553 10.6159V14.2412L26.94 13.049C27.4892 12.7449 27.6967 12.0514 27.3916 11.4918L21.5699 0.956462C21.3624 0.579331 20.9718 0.360352 20.5691 0.360352Z" fill="#BC2525"/>
<path d="M22.4487 24.1809H1.79806C0.943723 24.1809 0.248047 23.4874 0.248047 22.6358V10.6163C0.248047 9.76472 0.943723 9.07129 1.79806 9.07129H22.4487C23.303 9.07129 23.9987 9.76472 23.9987 10.6163V22.6358C24.0109 23.4874 23.303 24.1809 22.4487 24.1809ZM1.79806 9.87421C1.3953 9.87421 1.05357 10.2027 1.05357 10.6163V22.6358C1.05357 23.0373 1.3831 23.3779 1.79806 23.3779H22.4487C22.8514 23.3779 23.1932 23.0495 23.1932 22.6358V10.6163C23.1932 10.2148 22.8636 9.87421 22.4487 9.87421H1.79806Z" fill="#BC2525"/>
<path d="M21.0084 21.6988H3.06731C2.82321 21.6988 2.64014 21.5042 2.64014 21.273V20.0078C2.64014 19.7645 2.83541 19.582 3.06731 19.582H21.0084C21.2525 19.582 21.4356 19.7767 21.4356 20.0078V21.273C21.4478 21.5042 21.2525 21.6988 21.0084 21.6988ZM3.06731 19.9713C3.0551 19.9713 3.0429 19.9835 3.0429 19.9957V21.2609C3.0429 21.273 3.0551 21.2852 3.06731 21.2852H21.0084C21.0206 21.2852 21.0328 21.273 21.0328 21.2609V19.9957C21.0328 19.9835 21.0206 19.9713 21.0084 19.9713H3.06731Z" fill="#BC2525"/>
<path d="M21.2893 18.9855H17.1519V17.4404H21.2893V18.9855ZM17.5546 18.5718H20.8743V17.8297H17.5546V18.5718Z" fill="#BC2525"/>
<path d="M20.4959 15.8105H15.5407C15.1135 15.8105 14.7596 15.4577 14.7596 15.0319V12.8421C14.7596 12.4163 15.1135 12.0635 15.5407 12.0635H20.4959C20.923 12.0635 21.277 12.4163 21.277 12.8421V15.0319C21.277 15.4577 20.923 15.8105 20.4959 15.8105ZM15.5529 12.4771C15.3454 12.4771 15.1868 12.6474 15.1868 12.8421V15.0319C15.1868 15.2387 15.3576 15.3968 15.5529 15.3968H20.5081C20.7155 15.3968 20.8742 15.2265 20.8742 15.0319V12.8421C20.8742 12.6353 20.7033 12.4771 20.5081 12.4771H15.5529Z" fill="#BC2525"/>
<path d="M16.5049 18.9855H12.3675V17.4404H16.5049V18.9855ZM12.7703 18.5718H16.09V17.8297H12.7703V18.5718Z" fill="#BC2525"/>
<path d="M11.7084 18.9855H7.58313V17.4404H11.7206V18.9855H11.7084ZM7.98589 18.5718H11.3056V17.8297H7.98589V18.5718Z" fill="#BC2525"/>
<path d="M6.92401 18.9855H2.79877V17.4404H6.93621V18.9855H6.92401ZM3.20153 18.5718H6.52125V17.8297H3.20153V18.5718Z" fill="#BC2525"/>
</g>
<defs>
<clipPath id="clip0">
<rect width="27.2778" height="23.8201" fill="white" transform="translate(0.248047 0.360352)"/>
</clipPath>
</defs>
</svg>
