<svg width="17" height="24" viewBox="0 0 17 24" fill="none" xmlns="http://www.w3.org/2000/svg">
<path d="M10.8316 23.9138C10.6892 23.9138 10.4914 23.8267 10.3568 23.4469L8.39429 17.9945L6.43174 23.4469C6.2893 23.8426 6.09146 23.9217 5.94902 23.9138C5.80658 23.9138 5.60874 23.8188 5.49004 23.4231L4.94401 21.6584C4.89653 21.5081 4.80948 21.3973 4.69078 21.3577C4.57208 21.3182 4.43755 21.3419 4.30302 21.4289L2.75989 22.4419C2.4117 22.6714 2.20595 22.616 2.09516 22.5289C1.98437 22.4419 1.88149 22.252 2.02393 21.8563L4.22388 15.7471L4.46129 15.9449C4.82531 16.2456 5.26055 16.4118 5.73536 16.4118C6.12312 16.4118 6.51088 16.3089 6.89073 16.1032C7.27057 15.8974 7.82452 15.7787 8.4022 15.7787C8.97988 15.7787 9.53383 15.8974 9.91367 16.1032C10.2935 16.3089 10.6734 16.4118 11.069 16.4118C11.5439 16.4118 11.987 16.2535 12.351 15.9449L12.5884 15.7471L14.7884 21.8563C14.9308 22.252 14.8279 22.434 14.7172 22.5289C14.6064 22.616 14.4006 22.6714 14.0524 22.4419L12.5093 21.4289C12.3748 21.3419 12.2402 21.3182 12.1215 21.3577C12.0028 21.3973 11.9158 21.5081 11.8683 21.6584L11.3223 23.4231C11.2036 23.8188 11.0057 23.9138 10.8633 23.9138C10.8396 23.9138 10.8396 23.9138 10.8316 23.9138ZM8.39429 16.7283L10.7604 23.2965C10.7842 23.3677 10.8079 23.4152 10.8316 23.4469C10.8475 23.4152 10.8712 23.3677 10.8949 23.2965L11.441 21.5318C11.528 21.2549 11.7179 21.0412 11.9554 20.9541C12.2007 20.8671 12.4776 20.9067 12.723 21.0649L14.2661 22.0779C14.3294 22.1174 14.3769 22.1412 14.4085 22.157C14.4006 22.1174 14.3927 22.0699 14.369 21.9987L12.3669 16.4435C11.9791 16.6967 11.528 16.8312 11.0532 16.8312C10.5942 16.8312 10.1353 16.7125 9.70001 16.4751C9.37556 16.301 8.90075 16.1981 8.39429 16.1981C7.87991 16.1981 7.4051 16.301 7.08856 16.4751C6.64541 16.7125 6.19434 16.8312 5.73536 16.8312C5.73536 16.8312 5.73536 16.8312 5.72744 16.8312C5.25264 16.8312 4.80948 16.6967 4.42172 16.4435L2.41961 21.9987C2.39587 22.0699 2.38004 22.1253 2.38004 22.157C2.4117 22.1412 2.45918 22.1174 2.52248 22.0779L4.06561 21.0649C4.31093 20.9067 4.5879 20.8592 4.83322 20.9541C5.07854 21.0412 5.26846 21.2549 5.3476 21.5318L5.89363 23.2965C5.91737 23.3677 5.94111 23.4152 5.95693 23.4469C5.97276 23.4152 6.00442 23.3677 6.02816 23.2965L8.39429 16.7283Z" fill="#BC2525"/>
<path d="M5.72724 15.2649C5.45818 15.2649 5.20495 15.2095 4.96755 15.0987C4.42943 14.8375 4.04958 14.3073 3.93088 13.6268C3.75679 12.6376 2.823 11.4743 1.89712 11.0786C1.26404 10.8096 0.828802 10.3189 0.694273 9.74125C0.559744 9.16357 0.749668 8.53049 1.20074 8.01611C1.86547 7.26433 2.19783 5.80034 1.92877 4.8349C1.74676 4.17808 1.84964 3.52917 2.22157 3.06228C2.59351 2.59538 3.20284 2.35007 3.8834 2.38172C4.88841 2.4292 6.2337 1.7803 6.82721 0.965209C7.2308 0.411265 7.80057 0.0947266 8.39408 0.0947266C8.98759 0.0947266 9.56527 0.411265 9.96095 0.965209C10.5545 1.7803 11.8997 2.4292 12.9048 2.38172C13.5853 2.35007 14.1947 2.6033 14.5666 3.06228C14.9385 3.52917 15.0493 4.17017 14.8594 4.8349C14.5903 5.80034 14.9227 7.26433 15.5874 8.01611C16.0385 8.53049 16.2205 9.15565 16.0939 9.74125C15.9594 10.3189 15.5241 10.8096 14.891 11.0786C13.9652 11.4743 13.0314 12.6376 12.8573 13.6268C12.7386 14.2994 12.3587 14.8375 11.8206 15.0987C11.2825 15.3598 10.6336 15.3202 10.0243 14.9879C9.13794 14.5131 7.65021 14.5131 6.7639 14.9879C6.42363 15.1699 6.06752 15.2649 5.72724 15.2649ZM3.7647 3.22846C3.38485 3.22846 3.07623 3.35508 2.89422 3.59248C2.69638 3.84571 2.64099 4.20182 2.75177 4.60541C3.09997 5.85573 2.70429 7.60461 1.84173 8.57797C1.57267 8.88659 1.46188 9.23479 1.5331 9.54341C1.60432 9.85995 1.85755 10.1211 2.2374 10.2873C3.43233 10.7937 4.54813 12.1944 4.77762 13.4764C4.84884 13.88 5.05459 14.1886 5.33948 14.3232C5.63228 14.4656 5.98838 14.4339 6.3524 14.2361C7.49194 13.6189 9.2883 13.6189 10.4278 14.2361C10.7919 14.4339 11.1559 14.4656 11.4408 14.3232C11.7336 14.1807 11.9314 13.88 12.0105 13.4764C12.24 12.2023 13.3558 10.8017 14.5508 10.2873C14.9306 10.1211 15.1838 9.85995 15.2551 9.54341C15.3263 9.22687 15.2155 8.88659 14.9464 8.57006C14.0918 7.5967 13.6961 5.84782 14.0364 4.59749C14.1472 4.20182 14.0997 3.8378 13.8939 3.58457C13.6961 3.33134 13.3558 3.20472 12.9443 3.22055C11.6465 3.27594 10.0322 2.50042 9.27247 1.44793C9.02716 1.11557 8.71853 0.925641 8.39408 0.925641C8.06963 0.925641 7.761 1.10765 7.51568 1.44793C6.75599 2.50042 5.14164 3.27594 3.84383 3.22055C3.82009 3.22846 3.78844 3.22846 3.7647 3.22846Z" fill="#BC2525"/>
<path d="M8.39428 11.7512C6.32095 11.7512 4.63538 10.0656 4.63538 7.9923C4.63538 5.91897 6.32095 4.2334 8.39428 4.2334C10.4676 4.2334 12.1532 5.91897 12.1532 7.9923C12.1532 10.0656 10.4676 11.7512 8.39428 11.7512ZM8.39428 4.66073C6.55835 4.66073 5.0627 6.15637 5.0627 7.9923C5.0627 9.82823 6.55835 11.3239 8.39428 11.3239C10.2302 11.3239 11.7258 9.82823 11.7258 7.9923C11.7258 6.15637 10.2302 4.66073 8.39428 4.66073Z" fill="#BC2525"/>
</svg>
