<svg width="40" height="40" fill="none" xmlns="http://www.w3.org/2000/svg">
  <path d="M17.715 10.534L13.431 6.25a2.036 2.036 0 0 0-2.876 0L8.86 7.945a2.036 2.036 0 0 0 0 2.876l4.284 4.284c.396.397.917.595 1.438.595.52 0 1.041-.198 1.438-.595l1.695-1.695a2.036 2.036 0 0 0 0-2.876zm-.805 2.07L15.215 14.3a.89.89 0 0 1-.633.262.89.89 0 0 1-.633-.262l-4.284-4.284a.896.896 0 0 1 0-1.266l1.695-1.695a.892.892 0 0 1 1.266 0l4.284 4.284a.889.889 0 0 1 .262.633.89.89 0 0 1-.262.633zM12.523 15.726L8.24 11.44a2.036 2.036 0 0 0-2.876 0l-1.695 1.696a2.036 2.036 0 0 0 0 2.875l4.284 4.285c.397.396.917.594 1.438.594.52 0 1.041-.198 1.438-.594l1.695-1.696a2.036 2.036 0 0 0 0-2.875zm-.805 2.07l-1.695 1.696a.896.896 0 0 1-1.266 0l-4.284-4.285a.889.889 0 0 1-.262-.633c0-.239.093-.463.262-.632l1.695-1.696a.892.892 0 0 1 1.266 0l4.284 4.285a.896.896 0 0 1 0 1.265z" fill="#fff"/>
  <path d="M38.832 13.216L33.44 7.824a3.991 3.991 0 0 0-3.851-1.031c-.924-.705-2.04-1.35-3.264-1.873-1.818-.78-3.667-1.21-5.207-1.21-.213 0-.417.01-.612.026a2.76 2.76 0 0 0-1.826-.942l-5.201-.493a4.464 4.464 0 0 0-3.59 1.291L4.447 9.034a.57.57 0 1 0 .805.805l5.442-5.442a3.329 3.329 0 0 1 2.677-.963l5.202.494c.774.073 1.39.689 1.464 1.464l.278 2.937-.015-.014a8.652 8.652 0 0 1-.473-.456 6.493 6.493 0 0 1-.278-.312l-.025-.03a4.913 4.913 0 0 1-.086-.107l-.034-.045-.087-.118-.04-.058-.03-.045a1.821 1.821 0 0 0-.352-2.075 1.822 1.822 0 0 0-2.573 0c-.71.71-.71 1.864 0 2.573a1.814 1.814 0 0 0 2.116.333c.163.221.35.445.564.67.414.434.907.857 1.463 1.258l.065.69a3.33 3.33 0 0 1-.963 2.677l-9.192 9.192a1.238 1.238 0 0 1-.88.365c-.333 0-.646-.13-.881-.365l-7.112-7.111a1.237 1.237 0 0 1-.365-.88c0-.334.13-.646.365-.882l1.12-1.12a.57.57 0 1 0-.805-.805l-1.12 1.12c-.93.93-.93 2.442 0 3.372l7.112 7.111c.45.45 1.049.698 1.685.698.637 0 1.236-.248 1.686-.698l9.192-9.192c.9-.9 1.369-2.125 1.305-3.389a16.771 16.771 0 0 0 2.853 1.311l-3.2 4.136a4.008 4.008 0 0 0-.082 4.78l-2.628 2.628c-.295.295-.419.732-.322 1.139a.076.076 0 0 1-.02.07l-1.896 1.896c-.075.075-.139.162-.189.257l-1.067 2.033-1.916.99a1.068 1.068 0 0 0-.469.482l-.75 1.558-2.282 1.429a.935.935 0 0 0-.433.676l-.331 2.59c-.037.29.06.575.267.783a.932.932 0 0 0 .784.267l2.589-.331a.936.936 0 0 0 .676-.433l1.43-2.281 1.557-.752c.206-.099.377-.265.482-.468l.99-1.916 2.033-1.067a1.06 1.06 0 0 0 .257-.19l1.896-1.895a.074.074 0 0 1 .07-.02c.407.097.844-.027 1.14-.322l2.626-2.628a4.003 4.003 0 0 0 4.78-.082l3.046-2.356a.57.57 0 0 0-.697-.9l-3.045 2.355a2.865 2.865 0 0 1-3.724-.194l-.002-.003-.023-.022-.022-.02L22.47 20.6l-.021-.021-.023-.024-.001-.002a2.865 2.865 0 0 1-.195-3.724l3.46-4.472c1.056.283 2.074.434 2.984.434.271 0 .528-.013.77-.04l4.545 4.544c.33.33.762.494 1.194.494.433 0 .866-.165 1.195-.494a1.691 1.691 0 0 0 0-2.389l-4.63-4.63a1.678 1.678 0 0 0-1.195-.495c-.451 0-.875.176-1.194.495a1.678 1.678 0 0 0-.485 1.373 6.845 6.845 0 0 1-.2.004c-.681 0-1.435-.096-2.224-.278L28.365 8.9a2.85 2.85 0 0 1 4.27-.272l5.392 5.392a2.851 2.851 0 0 1-.272 4.27l-1.84 1.423a.57.57 0 0 0 .697.9l1.84-1.423a3.99 3.99 0 0 0 .38-5.975zm-21.223-6.18a.677.677 0 0 1-.682-.68c0-.182.071-.353.2-.482a.677.677 0 0 1 .565-.194c-.064.407-.002.846.18 1.304a.68.68 0 0 1-.263.053zm4.406 14.72l2.885 2.885-2.59 2.59a.076.076 0 0 1-.07.02 1.221 1.221 0 0 0-1.139.322l-1.888 1.887-2.044 1.074a1.055 1.055 0 0 0-.45.452L15.73 32.9l-1.555.75a1.06 1.06 0 0 0-.438.392l-1.39 2.22-2.24.287.287-2.24 2.22-1.39a1.06 1.06 0 0 0 .392-.438l.75-1.555 1.914-.99c.194-.1.35-.255.452-.449l1.074-2.044 1.887-1.888a1.22 1.22 0 0 0 .323-1.139.075.075 0 0 1 .02-.07l2.59-2.59zm9.636-9.967l3.923 3.923a.551.551 0 0 1-.78.779l-4.058-4.059c.377-.162.685-.377.915-.643zm-1.486-.707a.548.548 0 0 1 .662-.088c-.16.213-.442.38-.823.494v-.016c0-.147.057-.286.16-.39zm-2.7-2.878l-2.198 2.841a15.965 15.965 0 0 1-1.35-.508c-.862-.37-1.663-.8-2.369-1.267l-.378-3.986a2.77 2.77 0 0 0-.077-.435h.025c1.389 0 3.079.397 4.759 1.117.923.396 1.777.862 2.518 1.368a3.988 3.988 0 0 0-.93.87z" fill="#fff"/>
</svg>