<svg width="70" height="70" fill="none" xmlns="http://www.w3.org/2000/svg">
  <path d="M68.97 24.82v-.757a2.576 2.576 0 0 0-2.573-2.574 2.574 2.574 0 0 0-2.568 2.468l-31.574-5.299h-1.373v-3.345a3.092 3.092 0 0 0-3.088-3.088 3.092 3.092 0 0 0-3.088 3.088v3.345H9.265v-3.345a3.092 3.092 0 0 0-3.088-3.088 3.092 3.092 0 0 0-3.089 3.088v3.345H0v39.118h32.244L70 52.231V24.993l-1.03-.172zm-3.088-.757a.515.515 0 0 1 1.03 0v.412l-1.03-.173v-.24zm-39.117-8.75a1.03 1.03 0 0 1 2.058 0v3.345h-2.058v-3.345zm-21.618 0a1.03 1.03 0 0 1 2.059 0v3.345H5.147v-3.345zm4.118 40.404H2.059v-35h7.206v2.059H4.118v30.882h5.147v2.06zM21.618 51.6h-2.06v-7.206H17.5v9.264h4.118v2.06H11.324v-2.06h4.117v-9.264h-2.059V51.6h-2.058v-2.06h-2.06v2.06H6.177V24.835h3.089v2.059h2.058v-2.06h2.06v8.236h2.058V22.776h-4.117v-2.059h10.294v2.059H17.5V33.07h2.059v-8.235h2.059v2.059h2.059v-2.06h3.088V51.6h-3.088v-2.06h-2.06v2.06zm46.323-1.147l-35 5.14V50.57h-2.059v5.147h-7.206v-2.059h5.148V22.776h-5.148v-2.059h7.206v23.676h2.06V20.861l35 5.874v23.718z" fill="#fff"/>
  <path d="M32.941 46.453h-2.059v2.059h2.06v-2.059zM11.323 28.953H9.265v2.059h2.058v-2.059zM23.676 35.13v-2.06h-2.058v2.06H11.323v-2.06h-2.06v2.06H8.236v6.176h1.03v2.058h2.059v-2.058h10.294v2.058h2.059v-2.058h1.029v-6.177h-1.03zm-1.029 4.117H10.294v-2.059h12.353v2.059zM11.323 45.423H9.265v2.059h2.058v-2.06zM23.677 28.953h-2.06v2.059h2.06v-2.059zM23.677 45.423h-2.06v2.059h2.06v-2.06zM39.118 24.834h-2.06v26.765h2.06V24.834zM44.265 25.864h-2.06V50.57h2.06V25.864zM49.412 26.894h-2.059V49.54h2.059V26.894zM54.559 27.923H52.5V48.51h2.059V27.923zM59.706 28.953h-2.059v18.53h2.059v-18.53zM64.853 29.982h-2.059v16.471h2.059v-16.47z" fill="#fff"/>
</svg>