<svg width="40" height="40" fill="none" xmlns="http://www.w3.org/2000/svg">
  <g clip-path="url(#keys)" fill="#fff">
    <path d="M39.872 4.138a.638.638 0 0 0-.617-.618l-4.15-.128a.638.638 0 0 0-.636.803l.346 1.287-1.287-.345a.638.638 0 0 0-.782.781l.346 1.288-1.288-.345a.638.638 0 0 0-.781.78l.345 1.288-1.288-.345a.638.638 0 0 0-.616.165l-1.803 1.804a.637.637 0 0 0-.165.616l.345 1.287-1.288-.345a.638.638 0 0 0-.616.165l-2.484 2.485-.959-.934c-1.018-.988-2.038-1.975-3.008-3.01a5.673 5.673 0 0 0-1.53-1.149c-.415-.207-.939-.322-1.475-.322a.641.641 0 0 0-.074.004c-1.44.17-2.356 1.156-3.165 2.027-.154.166-.3.323-.449.475a.638.638 0 0 0 .91.894c.161-.164.32-.335.474-.5.714-.77 1.389-1.495 2.342-1.624.323.005.638.072.867.187.392.196.711.496 1.048.77.133.109.245.242.364.366.912.957 1.86 1.878 2.808 2.798.41.397.812.789 1.21 1.18.03.086.08.165.146.23l2.167 2.167c.364.365.678.74.792 1.252.083.372.052.764-.085 1.12l-.417.625c-2.898 3.045-5.738 5.838-8.744 8.795l-1.211 1.192a.637.637 0 1 0 .895.909l1.21-1.192c2.957-2.908 22.245-22.264 22.245-22.264a.638.638 0 0 0 .186-.47l-.128-4.15zm-13.83 13.291a51.222 51.222 0 0 0-1.684-1.77l2.22-2.22 2 .535a.638.638 0 0 0 .78-.78l-.535-2 1.283-1.282 1.999.535a.638.638 0 0 0 .78-.78l-.344-1.288 1.287.345a.638.638 0 0 0 .781-.781l-.345-1.288L35.552 7a.638.638 0 0 0 .78-.78l-.408-1.526 2.692.083.015.476-12.383 12.383-.207-.207zm1.175 2.122a3.232 3.232 0 0 0-.152-.643 8.489 8.489 0 0 0-.067-.218L38.685 7.003l.032 1.048-11.5 11.5zM14.273 33.42a.638.638 0 0 0-.902-.022c-.213.203-.412.415-.605.62-.333.356-.668.722-1.072 1-.428.294-.788.276-1.29.262a1.162 1.162 0 0 1-.379-.059c-.285-.099-.54-.314-.79-.48-.84-.841-1.692-1.674-2.516-2.48-1.65-1.612-3.354-3.279-4.983-5.02a1.805 1.805 0 0 1-.456-1.095c-.026-.331.027-.92.265-1.18 2.094-2.298 4.292-4.443 6.418-6.518 1.295-1.263 2.633-2.569 3.937-3.898a.638.638 0 0 0-.91-.893 251.677 251.677 0 0 1-3.917 3.878C4.91 19.645 2.675 21.828.536 24.18c-.234.258-.377.731-.452 1.062a3.242 3.242 0 0 0 .713 2.864c1.65 1.764 3.369 3.444 5.03 5.068.836.818 1.701 1.663 2.552 2.514.803.803 2.335 1.166 3.408.736a.817.817 0 0 0 .027-.011c.794-.361 1.347-.95 1.882-1.52.19-.202.368-.392.555-.571a.638.638 0 0 0 .022-.902z"/>
    <path d="M22.724 17.54a2.272 2.272 0 0 0-3.18 0c-.866.865-.865 2.317 0 3.181.416.417 1.003.625 1.59.625.587 0 1.174-.208 1.59-.625a2.272 2.272 0 0 0 0-3.18zm-.901 2.28a.987.987 0 0 1-1.378 0 .985.985 0 0 1 0-1.378.985.985 0 0 1 1.378 0 .986.986 0 0 1 0 1.377zM19.244 21.078l-3.713-3.713a2.79 2.79 0 0 0-1.986-.823 2.79 2.79 0 0 0-1.986.823L8.45 20.473v.001l-3.11 3.108a2.812 2.812 0 0 0 0 3.973l3.714 3.713a2.79 2.79 0 0 0 1.987.823 2.79 2.79 0 0 0 1.986-.823l3.108-3.108 3.11-3.11a2.812 2.812 0 0 0 0-3.972zm-7.119 9.289c-.29.29-.675.449-1.084.449-.41 0-.795-.16-1.085-.45l-3.713-3.713a1.535 1.535 0 0 1 0-2.169L8.9 21.826l5.882 5.883-2.658 2.658zm6.218-6.218l-2.658 2.658-5.883-5.883 2.658-2.657c.29-.29.675-.45 1.085-.45.41 0 .794.16 1.084.45l3.714 3.713a1.535 1.535 0 0 1 0 2.169z"/>
  </g>
  <defs>
    <clipPath id="keys">
      <path fill="#fff" d="M0 0h40v40H0z"/>
    </clipPath>
  </defs>
</svg>