<svg width="130" height="160" fill="none" xmlns="http://www.w3.org/2000/svg">
  <g clip-path="url(#clip0)" fill="#E5262A">
    <path d="M68.091 127.662c-.057-.058-.085-.115-.143-.172l-2.547-2.461c2.118-.487 4.38-2.232 4.38-4.064 0-2.118-2.92-2.862-5.439-2.862-2.605 0-2.92 1.803-2.948 3.062l-6.554-6.324c-1.346-1.317-3.864-2.347-5.753-2.347H23.499c-1.89 0-4.408 1.03-5.753 2.347l-6.555 6.324c-.029-1.259-.343-3.062-2.948-3.062-2.519 0-5.438.744-5.438 2.862 0 1.803 2.261 3.577 4.38 4.064l-2.548 2.461c-.057.057-.086.114-.143.172C1.774 129.98 0 134.301 0 137.42v9.301c0 2.261.887 4.293 2.318 5.838v3.606c0 2.118 1.775 3.835 3.95 3.835h4.751c2.176 0 3.95-1.717 3.95-3.835v-.916H57.616v.916c0 2.118 1.774 3.835 3.95 3.835h4.75c2.176 0 3.95-1.717 3.95-3.835v-3.606a8.494 8.494 0 0 0 2.32-5.838v-9.301c0-3.119-1.775-7.44-4.495-9.758zm-47.913-9.988c.916-.773 2.548-1.345 3.35-1.345h25.587c.802 0 2.404.572 3.349 1.345l8.615 8.328H11.563l8.615-8.328zm-17.23 18.344c0-2.289 1.803-4.15 4.007-4.15 2.204 0 9.445 4.236 9.445 6.525 0 2.29-7.241 1.746-9.445 1.746-2.204.029-4.007-1.832-4.007-4.121zm12.021 15.139H8.93c-1.26-.401-2.147-.859-2.776-1.345-.315-.258-.573-.515-.744-.773a2.605 2.605 0 0 1-.43-.773c-.572-1.602.601-3.062.601-3.062h7.728l5.152 5.924-3.492.029zm32.429.029H25.187a4.214 4.214 0 0 1-4.207-4.207h30.625a4.214 4.214 0 0 1-4.207 4.207zm.973-7.069H24.214c-2.519 0-4.55-3.091-4.55-6.926H52.95c0 3.835-2.06 6.926-4.579 6.926zm19.234 4.207a2.61 2.61 0 0 1-.43.772c-.2.258-.429.516-.744.773-.63.487-1.516.944-2.776 1.345H54.124l5.152-5.924h7.728c0-.028 1.173 1.431.6 3.034zm-1.975-8.156c-2.204 0-9.445.515-9.445-1.746 0-2.289 7.241-6.525 9.445-6.525 2.204 0 4.007 1.86 4.007 4.15 0 2.26-1.803 4.121-4.007 4.121z"/>
    <path d="M96.484 107.343c-.057-.057-.086-.114-.143-.171l-2.547-2.462c2.118-.486 4.379-2.232 4.379-4.063 0-2.118-2.92-2.862-5.438-2.862-2.605 0-2.92 1.803-2.948 3.062l-6.555-6.325c-1.345-1.316-3.864-2.346-5.753-2.346H51.891c-1.889 0-4.407 1.03-5.753 2.346l-6.554 6.325c-.029-1.26-.344-3.062-2.948-3.062-2.519 0-5.438.744-5.438 2.862 0 1.803 2.26 3.577 4.379 4.063l-2.547 2.462c-.058.057-.086.114-.144.171-1.345 1.145-2.461 2.805-3.234 4.55h4.15a4.036 4.036 0 0 1 1.546-.314c.372 0 .858.114 1.46.314h12.479c1.975 0 4.58 1.088 5.982 2.462l2.633 2.547h23.413c0 3.834-2.032 6.925-4.551 6.925h-8.072a7.613 7.613 0 0 1-2.461 1.116l1.832 1.775h11.935a4.213 4.213 0 0 1-4.207 4.206h-4.18a16.436 16.436 0 0 1 1.66 4.064H86.01v.916c0 2.118 1.774 3.835 3.95 3.835h4.75c2.176 0 3.95-1.717 3.95-3.835v-3.606a8.493 8.493 0 0 0 2.319-5.838v-9.301c0-3.176-1.775-7.498-4.494-9.816zm-31.799-1.66H39.956l8.615-8.327c.916-.773 2.547-1.345 3.349-1.345h25.559c.802 0 2.404.572 3.35 1.345l8.614 8.327H64.685zm31.313 22.322a2.619 2.619 0 0 1-.43.773c-.2.258-.429.515-.744.773-.63.486-1.517.944-2.776 1.345H82.488l5.152-5.924h7.728c.029-.029 1.202 1.431.63 3.033zm-1.975-8.156c-2.204 0-9.445.515-9.445-1.745 0-2.261 7.24-6.525 9.445-6.525 2.204 0 4.007 1.86 4.007 4.149 0 2.261-1.803 4.121-4.007 4.121z"/>
    <path d="M125.106 87.168c-.057-.058-.086-.115-.143-.172l-2.547-2.461c2.118-.487 4.379-2.233 4.379-4.064 0-2.118-2.919-2.862-5.438-2.862-2.605 0-2.92 1.803-2.948 3.062l-6.555-6.324C110.509 73.03 107.99 72 106.101 72H80.513c-1.889 0-4.407 1.03-5.753 2.347l-6.554 6.324c-.029-1.259-.344-3.062-2.948-3.062-2.519 0-5.438.744-5.438 2.862 0 1.803 2.26 3.577 4.379 4.064l-2.547 2.46c-.058.058-.086.115-.144.172-1.345 1.145-2.461 2.805-3.234 4.55h4.15a4.032 4.032 0 0 1 1.546-.314c.372 0 .859.114 1.46.315h12.479c1.975 0 4.58 1.087 5.982 2.46l2.633 2.548h23.413c0 3.835-2.032 6.925-4.551 6.925h-8.072a7.59 7.59 0 0 1-2.461 1.116l1.832 1.775h11.935a4.214 4.214 0 0 1-4.207 4.207h-4.179a16.44 16.44 0 0 1 1.66 4.063h12.737v.916c0 2.118 1.774 3.835 3.949 3.835h4.752c2.175 0 3.95-1.717 3.95-3.835v-3.663a8.494 8.494 0 0 0 2.318-5.838v-9.3c0-3.12-1.775-7.442-4.494-9.76zm-31.799-1.66H68.578l8.615-8.328c.916-.773 2.548-1.345 3.349-1.345h25.559c.802 0 2.405.572 3.349 1.345l8.615 8.328H93.307zm31.313 22.322a2.604 2.604 0 0 1-.43.772c-.2.258-.429.515-.744.773-.629.486-1.517.944-2.776 1.345H111.11l5.152-5.924h7.728c.029-.029 1.202 1.431.63 3.034zm-1.975-8.156c-2.204 0-9.445.515-9.445-1.746s7.241-6.525 9.445-6.525c2.204 0 4.007 1.86 4.007 4.15 0 2.26-1.803 4.12-4.007 4.12z"/>
  </g>
  <g clip-path="url(#clip1)" fill="#EA2127">
    <path d="M58.652 18.728a1.075 1.075 0 1 0-1.52 1.521 1.075 1.075 0 0 0 1.52-1.52zM73.2 48.095a3.764 3.764 0 0 0-3.03-5.987H51.907a3.734 3.734 0 0 0-2.659 1.101 3.734 3.734 0 0 0-1.1 2.66c0 .831.272 1.601.731 2.225A5.375 5.375 0 0 0 46 52.85v1.074c0 .594.481 1.075 1.074 1.075h27.929c.593 0 1.074-.481 1.074-1.075V52.85a5.375 5.375 0 0 0-2.878-4.755zm-22.431-3.367a1.6 1.6 0 0 1 1.139-.471h18.261a1.613 1.613 0 0 1 1.14 2.75 1.6 1.6 0 0 1-1.14.472H51.908a1.613 1.613 0 0 1-1.14-2.75zm-2.62 8.122a3.226 3.226 0 0 1 3.222-3.222H70.706a3.226 3.226 0 0 1 3.223 3.222h-25.78z"/>
    <path d="M100.001 45.13a6.765 6.765 0 0 0-1.294-1.486l-5.02-4.377a1.084 1.084 0 0 0-.427-.373l-3.035-2.647-14.05-12.256a3.196 3.196 0 0 0 .892-2.224 3.202 3.202 0 0 0-1.835-2.907l1.3-1.3a4.284 4.284 0 0 0 4.148-1.11 4.269 4.269 0 0 0 1.259-3.038 4.27 4.27 0 0 0-1.26-3.039L71.566 1.26A4.27 4.27 0 0 0 68.526 0a4.298 4.298 0 0 0-4.148 5.407L51.41 18.375a4.323 4.323 0 0 0-1.113-.145 4.268 4.268 0 0 0-3.038 1.258 4.302 4.302 0 0 0 0 6.076l9.115 9.115a4.284 4.284 0 0 0 3.038 1.257c1.1 0 2.201-.42 3.039-1.257a4.298 4.298 0 0 0 1.11-4.148l1.297-1.297c.156.325.368.626.63.888a3.202 3.202 0 0 0 2.28.944 3.2 3.2 0 0 0 2.223-.89l14.964 17.193a1.08 1.08 0 0 0 .206.236l4.459 5.123A6.39 6.39 0 0 0 94.513 55c.3 0 .602-.02.904-.062 2.023-.28 3.77-1.49 4.796-3.32 1.123-2.006 1.039-4.553-.212-6.486zM67.008 2.779c.406-.406.945-.63 1.518-.63.574 0 1.114.224 1.52.63l9.115 9.115c.406.405.63.945.63 1.519a2.15 2.15 0 0 1-3.667 1.52l-9.116-9.116a2.15 2.15 0 0 1 0-3.038zM60.932 33.16a2.151 2.151 0 0 1-3.039 0l-9.114-9.114a2.151 2.151 0 0 1 0-3.04 2.133 2.133 0 0 1 1.518-.628c.574 0 1.113.223 1.519.628l9.116 9.116a2.15 2.15 0 0 1 0 3.038zm4.522-7.56l-3.003 3.003-9.116-9.115L65.488 7.335l9.116 9.115-3.01 3.01-.03.028-6.073 6.073a1.68 1.68 0 0 0-.037.038zm3.836 2.24l-.006.007-.757.756a1.068 1.068 0 0 1-.76.315c-.287 0-.557-.112-.76-.315a1.068 1.068 0 0 1-.315-.76c0-.282.108-.546.303-.746l6.101-6.101a1.078 1.078 0 0 1 1.508.01c.203.204.315.474.315.761 0 .287-.112.557-.315.76l-.752.752-.016.015-4.546 4.546zm2.224.814l3.14-3.14L87.947 37.11l-4.85 4.85-11.582-13.305zm12.996 14.93l5.06-5.06 1.622 1.416-5.268 5.269-1.414-1.625zm13.828 6.983c-.693 1.238-1.865 2.055-3.215 2.242a4.268 4.268 0 0 1-3.867-1.473l-.01-.012-3.909-4.49 5.478-5.478 4.485 3.912a4.626 4.626 0 0 1 .897 1.029c.812 1.255.869 2.971.141 4.27z"/>
    <path d="M66.247 11.133c-.42-.42-1.1-.42-1.519 0l-4.557 4.558a1.074 1.074 0 1 0 1.519 1.519l4.557-4.558c.42-.42.42-1.1 0-1.519z"/>
  </g>
  <defs>
    <clipPath id="clip0">
      <path fill="#fff" transform="translate(0 72)" d="M0 0h129.6v88H0z"/>
    </clipPath>
    <clipPath id="clip1">
      <path fill="#fff" transform="translate(46)" d="M0 0h55v55H0z"/>
    </clipPath>
  </defs>
</svg>