<svg width="56" height="55" viewBox="0 0 56 55" fill="none" xmlns="http://www.w3.org/2000/svg">
<g clip-path="url(#clip0)">
<path d="M28.2749 0C13.1034 0 0.774902 12.3285 0.774902 27.5C0.774902 42.6715 13.1034 55 28.2749 55C43.4464 55 55.7749 42.6457 55.7749 27.5C55.7749 12.3543 43.4206 0 28.2749 0ZM28.2232 53.0616C14.0855 53.0616 2.58411 41.5602 2.58411 27.4483C2.58411 13.3365 14.0855 1.80921 28.2232 1.80921C42.3609 1.80921 53.8623 13.3106 53.8623 27.4483C53.8623 41.586 42.3351 53.0616 28.2232 53.0616Z" fill="#BC2525"/>
<path d="M30.084 25.8716V15.6108C31.1179 15.9985 31.9966 16.6963 32.6169 17.6268C33.1597 18.4538 34.2969 18.6864 35.124 18.1437C35.9511 17.6009 36.1837 16.4637 35.6409 15.6366C34.3486 13.6723 32.3326 12.3284 30.084 11.8631V8.96839C30.084 7.9604 29.2828 7.15918 28.2748 7.15918C27.2668 7.15918 26.4656 7.9604 26.4656 8.96839V11.8373C22.4595 12.6643 19.4355 16.2311 19.4355 20.4698C19.4355 24.7085 22.4595 28.2753 26.4656 29.1023V39.3631C25.4318 38.9754 24.553 38.2776 23.9327 37.3472C23.39 36.5201 22.2527 36.2875 21.4257 36.8302C20.5986 37.373 20.366 38.5102 20.9088 39.3373C22.2011 41.3016 24.217 42.6456 26.4656 43.1108V46.0055C26.4656 47.0135 27.2668 47.8147 28.2748 47.8147C29.2828 47.8147 30.084 47.0135 30.084 46.0055V43.1625C34.0902 42.3354 37.1141 38.7687 37.1141 34.53C37.1141 30.2912 34.0902 26.6987 30.084 25.8716ZM23.054 20.4698C23.054 18.2212 24.4755 16.3345 26.4656 15.5849V25.3288C24.4755 24.631 23.054 22.7184 23.054 20.4698ZM30.084 39.389V29.6451C32.0742 30.3688 33.4957 32.2814 33.4957 34.53C33.4957 36.7785 32.0742 38.6653 30.084 39.389Z" fill="#BC2525"/>
<path d="M28.275 51.5109C15.0419 51.5109 4.26416 40.7332 4.26416 27.5001C4.26416 14.267 15.0419 3.48926 28.275 3.48926C41.5081 3.48926 52.2858 14.267 52.2858 27.5001C52.2858 40.7332 41.5081 51.5109 28.275 51.5109ZM28.275 4.26463C15.4554 4.26463 5.03954 14.6805 5.03954 27.5001C5.03954 40.3196 15.4554 50.7355 28.275 50.7355C41.0945 50.7355 51.5104 40.3196 51.5104 27.5001C51.5104 14.6805 41.0687 4.26463 28.275 4.26463Z" fill="#BC2525"/>
</g>
<defs>
<clipPath id="clip0">
<rect width="55" height="55" fill="white" transform="translate(0.774902)"/>
</clipPath>
</defs>
</svg>
