<svg width="328" height="185" viewBox="0 0 328 185" fill="none" xmlns="http://www.w3.org/2000/svg">
<path d="M208.656 67.9881C208.656 68.6713 209.939 68.0917 210.539 67.9881C211.781 67.7397 211.719 67.4085 212.671 66.7253C214.161 65.6487 215.879 65.3589 217.576 64.8827C222.13 63.6406 226.083 66.2491 227.035 67.6776C227.987 69.1061 228.877 70.6588 229.395 72.3978C230.637 76.4349 231.775 71.2799 232.106 69.7272C233.038 65.5866 235.48 61.9429 238.916 65.8143C240.282 67.3878 242.207 68.837 243.407 68.7748C244.732 68.692 247.278 67.2842 248.416 67.6776C249.43 68.0088 250.859 70.4518 251.707 71.2385C252.949 72.4185 254.088 73.5986 255.019 75.0685C255.93 76.4763 256.882 79.975 258.558 80.5547C259.904 81.0309 262.16 78.8364 263.712 78.6915C267.665 78.3395 270.563 78.6087 274.061 80.5547C274.723 80.9481 275.634 81.2172 276.255 81.6727C277.352 82.5008 277.29 83.1012 277.186 84.5504C277.042 86.6827 276.4 88.5046 276.255 90.6577C276.11 92.6658 275.055 94.6533 274.309 96.5373C273.73 97.9865 271.888 100.74 272.529 102.355C273.088 103.783 275.634 104.736 276.731 105.543C278.014 106.475 278.987 107.551 280.105 108.524C281.616 109.849 283.975 108.669 285.673 109.477C287.183 110.222 287.121 113.037 288.032 114.342C289.233 116.039 291.571 114.321 293.207 114.59C295.152 114.921 294.883 116.785 296.767 117.137C298.381 117.447 300.823 116.06 302.334 116.888C303.452 117.488 304.528 119.228 305.563 120.014C306.474 120.697 306.515 120.801 307.405 120.718C308.192 120.635 309.185 120.49 310.096 120.78C310.965 121.029 312.808 123.058 312.828 124.093C312.828 125.356 311.338 127.819 310.8 128.979C310.034 130.593 308.088 133.016 306.66 134.134C304.57 135.81 303.7 129.993 301.279 135.81C300.409 137.922 300.886 137.591 301.175 140.199C301.651 144.526 302.272 146.079 304.901 144.526C305.398 144.216 307.364 146.224 307.447 146.824C307.592 148.108 305.315 148.315 306.35 149.806C306.764 150.385 307.778 150.116 308.026 150.572C308.42 151.234 308.047 152 308.006 152.663C309.268 153.429 310.469 154.464 311.793 155.209C312.58 155.644 313.387 155.913 314.049 156.617C314.608 157.196 314.919 158.48 315.581 158.915C316.989 159.867 319.038 159.391 320.486 160.364C321.853 161.296 323.343 162.538 324.316 163.842C325.226 165.043 327.172 166.72 327.337 168.252C327.565 170.425 326.468 172.144 325.847 174.131C325.371 175.622 324.502 178.582 323.55 179.721C322.722 180.715 322.142 179.866 321.19 179.969C320.238 180.073 319.741 180.735 319.1 181.543C318.437 182.371 318.148 183.489 317.402 184.234C316.202 183.613 315.54 181.895 314.339 181.274C313.677 180.942 312.621 181.025 311.897 180.839C310.986 180.57 310.386 180.135 309.558 179.493C308.109 178.375 306.929 176.968 305.522 175.725C303.825 174.214 303.245 173.22 301.051 173.614C299.188 173.945 297.657 175.456 295.835 175.912C294.138 176.388 292.11 176.181 290.412 175.891C287.059 175.311 284.079 173.096 280.953 171.688C279.38 170.984 276.897 169.432 277.393 167.217C277.787 165.457 280.705 166.036 280.188 164.339C278.739 163.987 277.249 163.863 275.779 163.49C274.434 163.138 273.502 162.289 272.178 161.565C270.335 160.53 266.03 160.55 265.264 157.859C263.836 157.507 262.967 158.708 261.704 158.625C260.131 158.542 259.986 156.182 258.331 156.12C256.799 156.099 254.274 158.004 253.011 158.749C251.438 159.66 251.562 160.467 250.238 161.792C247.795 164.235 244.918 166.927 242.29 168.956C241.172 169.804 239.247 170.964 237.633 170.57C236.225 170.239 234.818 168.873 233.183 169.328C233.017 171.088 236.329 171.957 235.77 173.634C235.335 174.918 231.196 174.131 230.099 174.131C228.401 174.131 226.228 172.868 224.676 173.365C223.227 173.8 221.964 175.725 220.474 176.409C219.688 175.498 219.129 174.814 217.866 175.229C216.935 175.539 216.335 177.009 215.258 176.657C215.01 175.891 213.913 175.58 213.251 175.229C212.464 174.794 211.677 174.214 210.705 174.214C209.753 174.214 208.49 176.491 207.89 176.595C207.331 176.698 205.22 174.877 204.578 174.4C203.812 173.883 203.812 173.138 202.695 173.138C200.273 173.117 201.37 175.995 199.631 176.926C198.1 177.754 196.444 175.746 194.85 176.409C193.401 177.009 192.035 178.168 190.4 178.272C189.717 178.334 188.682 177.941 187.813 178.003C186.902 178.085 186.302 178.5 185.453 178.769C184.46 179.1 183.777 179.203 183.011 179.969C182.431 180.549 182.1 181.419 181.417 181.812C179.389 182.992 175.746 181.543 173.842 181.046C171.917 180.528 167.032 180.508 166.183 183.075C165.79 182.33 166.246 181.191 166.018 180.28C165.852 179.576 165.314 178.769 164.9 178.189C164.072 177.03 162.603 175.767 161.361 175.394C159.436 174.794 158.339 176.346 156.559 176.719C155.855 176.864 154.613 177.423 154.013 176.698C153.62 176.222 153.744 174.587 153.33 173.883C152.399 172.351 151.033 171.709 151.902 169.908C152.171 169.37 153.599 168.728 152.585 167.734C151.964 167.113 150.494 167.755 149.729 167.299C148.466 166.554 147.721 164.587 146.458 163.656C145.196 162.745 143.664 162.579 142.567 161.233C141.408 159.826 141.077 157.797 139.959 156.368C139.297 155.519 136.73 153.677 135.82 153.553C135.551 154.753 135.074 155.064 134.122 154.733C133.626 154.546 132.032 153.139 131.99 152.518C131.887 151.441 133.087 150.986 133.605 150.406C134.226 149.661 134.536 148.977 134.805 147.963C131.183 146.783 128.803 147.528 123.587 147.528C121.579 147.528 121.29 151.441 120.234 153.325C119.158 155.209 118.185 157.238 116.612 158.666C115.515 158.066 114.19 156.865 113.135 156.389C111.955 155.892 111.251 156.203 109.782 156.285C109.554 155.416 108.167 154.36 107.443 153.946C106.159 153.201 105.311 154.567 103.965 154.526L101.709 153.511C100.261 152.228 98.1908 153.987 96.4935 154.029C94.3617 154.091 94.1961 151.834 92.0021 151.979C89.2079 152.145 86.7862 157.859 84.8406 158.066C82.6466 157.155 81.3633 154.36 79.0452 153.449C77.5135 152.849 76.1889 154.153 74.5537 153.449C73.9328 153.18 73.4567 152.538 72.8979 152.166C72.3598 151.814 71.0351 150.841 70.4762 150.447C70.4762 150.447 74.5537 143.719 75.4851 142.849C76.6856 141.752 77.7619 140.303 78.6726 138.895C79.1487 138.15 79.7489 137.239 79.9352 136.39C80.1836 135.355 79.7075 134.361 80.2043 133.368C80.5975 132.622 81.2185 132.353 81.5703 131.525C81.9843 130.531 82.1913 129.807 82.2741 128.709C82.4396 126.453 81.5703 125.066 81.5703 122.83C81.5703 120.697 81.7359 118.793 80.908 116.909C80.2043 115.211 79.5419 113.534 78.6519 111.94C76.6856 108.379 77.2238 104.839 76.2924 100.947C75.8784 99.2493 74.947 97.4689 74.5123 95.7299C74.0156 93.8666 74.0156 92.4174 73.0221 90.6784C71.2421 87.4902 71.18 83.4738 70.8902 79.7059C70.559 75.5654 70.1037 71.8803 68.9446 68.0295C68.0339 64.9862 62.5903 61.4668 59.5684 61.798C59.5684 61.5703 59.4856 61.3219 59.4856 61.1148C58.368 61.1976 57.4572 60.4523 56.4637 60.2867C55.6151 60.1418 53.8558 60.7629 53.3177 60.3695C52.9244 60.1004 53.2556 59.4586 52.8416 59.0859C52.3035 58.5684 51.7239 58.9203 51.4963 58.7754C50.3372 58.0922 50.9581 56.9329 50.7304 55.4837C50.5648 54.4899 49.9853 53.4341 49.8197 52.3575C49.6334 51.0119 49.592 50.2252 48.9504 49.0451C47.7706 46.9541 46.1976 45.567 44.2313 47.4717C43.6931 46.478 42.9066 45.5463 42.3478 44.6147C42.1201 44.2628 41.9338 44.1178 41.7475 43.7038C41.6026 43.3932 41.4371 42.5858 41.3336 42.3581C40.9196 41.6542 40.3194 41.0745 39.6156 40.3913C38.8291 39.6253 38.1254 39.646 37.0905 39.1078C35.6416 38.3625 36.3247 38.6109 34.9793 39.0043C34.0479 39.2734 33.1165 39.232 32.1851 39.3562C30.4258 39.6253 28.4802 39.025 26.7208 38.5074C26.8036 37.3273 23.7817 35.2985 22.8503 34.7809C21.567 34.077 18.4624 34.1805 18.3796 32.0067C17.8828 32.4001 16.6202 33.0212 16.0821 32.9383C15.1507 32.7934 14.9023 31.986 14.3642 31.1579C13.9295 30.4954 13.4535 29.9157 13.0809 29.2947C12.46 28.2595 12.6876 27.4521 12.5221 26.272C12.2944 24.6779 11.57 22.8354 10.8869 21.4069C9.97621 19.5643 8.71364 19.9784 7.0992 18.9019C5.75383 17.9909 4.42917 17.1214 3.0631 16.2933C2.54566 15.9621 1.69704 15.6308 1.22099 15.1961C0.227489 14.3265 0.703541 14.5129 0.972614 13.2707C1.38657 11.4696 2.04891 10.2274 2.75264 8.55047C3.49776 6.85284 3.62195 4.86538 4.63615 3.16775C6.31268 0.393578 11.9218 0.145144 14.6125 1.20099C17.593 2.36034 20.3459 4.09937 23.3678 5.27943C24.7338 5.8177 26.4311 7.20479 28.0248 6.77003C29.3702 6.37668 30.5706 4.72046 32.0195 4.47202C33.3442 4.24429 35.2277 5.48646 36.2626 6.64582C36.78 7.22549 37.0905 7.92939 37.6907 8.42626C38.5187 9.10945 39.4087 8.86101 40.2987 9.17155C42.8445 10.1032 45.4318 12.7945 47.1497 14.989C48.6813 16.9558 49.2609 17.5976 51.7032 17.5355C53.5867 17.4734 55.5323 16.4175 57.3745 16.7695C59.2373 17.1214 59.5063 19.0261 60.9759 20.0405C62.5075 21.1171 64.5773 20.4339 66.1297 20.6409C68.096 20.91 68.1374 23.1666 69.4413 24.3467C70.7867 25.5475 71.7181 25.8787 73.0428 27.1416C74.4088 28.4665 75.7542 30.1849 77.6998 30.2677C79.7489 30.3712 81.7566 28.4251 83.8057 28.7771C84.2818 30.3505 87.4278 31.572 88.8146 31.5513C90.5325 31.4891 91.7123 30.0192 93.5544 30.2677C95.231 30.4954 96.0175 32.545 97.7975 32.8555C99.4119 33.1247 101.151 31.9032 102.537 31.1372C104.214 30.2263 105.228 29.5224 107.256 29.5431C109.202 29.5431 111.23 29.7294 113.176 29.5431C115.039 29.3568 116.633 30.0192 118.392 30.8267C119.758 31.4477 119.882 32.2344 120.814 33.3731C121.662 34.4082 124.084 35.7125 125.202 36.2508C126.795 37.0375 126.381 36.0852 127.913 35.2363C129.341 34.4496 130.521 33.9942 132.115 34.1391C133.729 34.284 135.406 34.284 137.041 34.4496C137.268 35.6297 140.352 38.2797 141.346 38.6937C142.091 39.0043 143.292 38.6316 143.954 39.0043C145.134 39.6667 144.823 40.0394 144.885 41.3023C144.968 43.2276 145.134 45.0288 146.727 45.712C147.597 46.1053 148.052 46.1467 148.611 46.9748C149.211 47.8443 149.397 48.8588 150.308 49.6662C153.04 52.047 156.973 52.4818 160.243 53.6204C163.762 54.8212 167.177 56.3946 170.634 57.409C172.248 57.8852 173.842 58.2785 173.614 60.2039C173.366 62.2535 176.843 62.8746 179.161 63.5577C180.258 63.889 183.073 64.1581 183.632 65.6487C184.315 67.5327 181.872 68.7748 180.775 69.6237C179.658 70.4725 177.981 72.3978 178.499 73.9505C179.016 75.5447 181.376 76.0415 182.535 76.2485C184.211 76.5798 184.501 75.731 186.095 76.4349C186.778 76.7454 189.034 78.5466 189.779 78.6501C190.545 78.795 191.456 78.2981 192.201 77.822C193.401 77.0767 193.857 75.2755 195.098 74.5509C196.444 73.8056 198.824 74.613 200.273 74.3025C202.115 73.9091 203.088 72.9568 203.792 71.1971C204.061 70.5139 204.102 69.603 204.557 68.9405C205.054 68.2573 205.965 68.0295 206.151 67.8639L208.656 67.9881Z" stroke="white" stroke-miterlimit="10"/>
<circle cx="75" cy="101" r="9" fill="#EA2127" fill-opacity="0.7"/>
<circle cx="75" cy="101" r="4" fill="white"/>
</svg>
