<svg width="12" height="13" fill="none" xmlns="http://www.w3.org/2000/svg">
  <path d="M9.716 8.586a.196.196 0 0 1-.132-.05L7.357 6.52a.182.182 0 0 1-.008-.264.198.198 0 0 1 .273-.008L9.85 8.264c.077.07.081.188.008.263a.196.196 0 0 1-.141.06zM2.284 8.587a.197.197 0 0 1-.141-.06.182.182 0 0 1 .008-.263L4.378 6.25c.078-.07.201-.067.274.008a.182.182 0 0 1-.009.263L2.416 8.536a.196.196 0 0 1-.132.05z" fill="#fff"/>
  <path d="M11.033 10.46H.967C.434 10.46 0 10.04 0 9.525V3.164c0-.514.434-.933.967-.933h10.066c.533 0 .967.419.967.933v6.362c0 .515-.434.933-.967.933zM.967 2.604c-.32 0-.58.25-.58.56v6.361c0 .309.26.56.58.56h10.066c.32 0 .58-.251.58-.56V3.164c0-.308-.26-.56-.58-.56H.967z" fill="#fff"/>
  <path d="M6 7.283c-.257 0-.515-.082-.71-.247L.32 2.856a.182.182 0 0 1-.019-.264.2.2 0 0 1 .273-.018l4.969 4.18a.745.745 0 0 0 .912 0l4.962-4.173a.199.199 0 0 1 .273.018.182.182 0 0 1-.019.264L6.71 7.036a1.106 1.106 0 0 1-.71.247z" fill="#fff"/>
</svg>