<svg width="12" height="13" viewBox="0 0 12 13" fill="none" xmlns="http://www.w3.org/2000/svg">
<path d="M9.71665 9.25531C9.66905 9.25531 9.62146 9.23758 9.58431 9.20173L7.35782 7.07501C7.28004 7.00095 7.27617 6.87605 7.3493 6.79686C7.42244 6.71688 7.54433 6.71334 7.62288 6.78819L9.84937 8.91491C9.92715 8.98898 9.93102 9.11387 9.85788 9.19306C9.81957 9.23443 9.7685 9.25531 9.71665 9.25531Z" fill="black"/>
<path d="M2.28351 9.25584C2.23205 9.25584 2.18058 9.23496 2.14227 9.19359C2.06914 9.1144 2.07301 8.98951 2.15079 8.91544L4.37805 6.78872C4.45622 6.71465 4.57888 6.71781 4.65163 6.79739C4.72476 6.87658 4.72089 7.00147 4.64311 7.07554L2.41585 9.20226C2.3787 9.23811 2.3311 9.25584 2.28351 9.25584Z" fill="black"/>
<path d="M11.0326 11.233H0.967368C0.434155 11.233 0 10.7913 0 10.248V3.53183C0 2.98853 0.434155 2.54688 0.967368 2.54688H11.0326C11.5658 2.54688 12 2.98853 12 3.53183V10.248C12 10.7913 11.5658 11.233 11.0326 11.233ZM0.967368 2.94086C0.647362 2.94086 0.386947 3.20601 0.386947 3.53183V10.248C0.386947 10.5739 0.647362 10.839 0.967368 10.839H11.0326C11.3526 10.839 11.6131 10.5739 11.6131 10.248V3.53183C11.6131 3.20601 11.3526 2.94086 11.0326 2.94086H0.967368Z" fill="black"/>
<path d="M5.99914 7.87938C5.74182 7.87938 5.4845 7.79231 5.2887 7.61856L0.320302 3.20556C0.239817 3.13425 0.231304 3.00975 0.301341 2.92741C0.372153 2.84546 0.494041 2.83798 0.574526 2.9085L5.54293 7.3211C5.79018 7.54055 6.20809 7.54055 6.45496 7.3211L11.4172 2.91559C11.4973 2.84428 11.6192 2.85216 11.6904 2.9345C11.7604 3.01685 11.7523 3.14095 11.6718 3.21266L6.70957 7.61817C6.51339 7.79231 6.25646 7.87938 5.99914 7.87938Z" fill="black"/>
</svg>
