<svg width="12" height="13" viewBox="0 0 12 13" fill="none" xmlns="http://www.w3.org/2000/svg">
<g clip-path="url(#clip0)">
<path d="M9.64458 12.2182C9.1453 12.2182 8.5423 12.0908 7.87915 11.836C6.42531 11.2779 4.84353 10.1749 3.42521 8.73078C2.00649 7.28626 0.923179 5.67531 0.374661 4.19504C-0.123809 2.84915 -0.125019 1.7445 0.371836 1.23902C0.443276 1.16628 0.515928 1.0882 0.591001 1.00765C1.04427 0.52231 1.55646 -0.0238521 2.23535 0.000805319C2.70314 0.0205313 3.1564 0.316421 3.62057 0.904501C4.99206 2.64121 4.37372 3.26011 3.6581 3.97764L3.53177 4.10504C3.41472 4.22422 3.19354 4.77613 5.25119 6.87119C5.92281 7.55503 6.49554 8.05557 6.95325 8.35845C7.24143 8.54914 7.75685 8.83763 7.96835 8.62229L8.09549 8.4916C8.7994 7.76462 9.40725 7.13708 11.1117 8.53228C11.6893 9.00489 11.9795 9.46598 11.9989 9.9431C12.0267 10.6339 11.4863 11.1567 11.0092 11.6178C10.9305 11.6942 10.8538 11.7682 10.7824 11.8405C10.5358 12.092 10.1414 12.2182 9.64458 12.2182ZM2.18691 0.410941C1.70459 0.410941 1.26908 0.877789 0.883625 1.2908C0.80613 1.37381 0.731057 1.45436 0.657194 1.52957C0.287076 1.906 0.324612 2.89518 0.752448 4.05038C1.28119 5.47723 2.33181 7.0364 3.71098 8.44064C5.08974 9.84406 6.62026 10.9138 8.02203 11.4517C9.15661 11.8882 10.1281 11.9252 10.4974 11.5491C10.5713 11.4739 10.6504 11.3975 10.7319 11.319C11.1464 10.9179 11.6167 10.4634 11.5961 9.95913C11.582 9.61269 11.3341 9.23995 10.8595 8.8516C9.43914 7.68859 9.04198 8.09914 8.38327 8.77927L8.25411 8.91201C7.93929 9.23297 7.42791 9.16187 6.73368 8.70242C6.25216 8.38352 5.65723 7.86489 4.96623 7.16092C3.25852 5.42257 2.71242 4.3586 3.24681 3.81326L3.37557 3.68381C4.04517 3.01312 4.4492 2.60833 3.30655 1.16135C2.92432 0.678474 2.55864 0.426146 2.21839 0.411352C2.2079 0.410941 2.1974 0.410941 2.18691 0.410941Z" fill="black"/>
</g>
<defs>
<clipPath id="clip0">
<rect width="12" height="12.2182" fill="white"/>
</clipPath>
</defs>
</svg>
