<svg width="12" height="13" fill="none" xmlns="http://www.w3.org/2000/svg">
  <g clip-path="url(#phonecall)">
    <path d="M9.644 12.162c-.499 0-1.102-.12-1.765-.362-1.454-.528-3.036-1.573-4.454-2.941C2.006 7.491.923 5.965.375 4.563c-.5-1.275-.5-2.322-.003-2.8.071-.07.144-.143.219-.22.453-.46.965-.977 1.644-.953.468.018.921.299 1.385.856 1.372 1.645.753 2.231.038 2.91l-.126.121c-.118.113-.339.636 1.719 2.62.672.648 1.244 1.122 1.702 1.41.288.18.804.453 1.015.25l.127-.125c.704-.688 1.312-1.283 3.016.039.578.448.868.884.888 1.336.027.655-.513 1.15-.99 1.587-.079.072-.155.142-.227.21-.246.239-.64.358-1.138.358zM2.187.979c-.483 0-.918.442-1.304.834-.077.078-.152.154-.226.226-.37.356-.333 1.293.095 2.388.529 1.351 1.58 2.828 2.959 4.158 1.379 1.33 2.909 2.343 4.31 2.853 1.135.413 2.107.448 2.476.092.074-.072.153-.144.235-.218.414-.38.884-.81.864-1.288-.014-.329-.262-.682-.737-1.05-1.42-1.101-1.817-.712-2.476-.068l-.13.126c-.314.304-.825.236-1.52-.199-.481-.302-1.076-.793-1.767-1.46-1.708-1.647-2.254-2.654-1.72-3.171l.13-.123c.669-.635 1.073-1.018-.07-2.389-.382-.457-.748-.696-1.088-.71h-.031z" fill="#fff"/>
  </g>
  <defs>
    <clipPath id="phonecall">
      <path fill="#fff" transform="translate(0 .589)" d="M0 0h12v11.574H0z"/>
    </clipPath>
  </defs>
</svg>