<svg width="20" height="20" viewBox="0 0 20 20" fill="none" xmlns="http://www.w3.org/2000/svg">
<path d="M10.0015 0C5.94181 0 2.63867 3.30314 2.63867 7.3632C2.63867 8.42222 2.85543 9.43334 3.2826 10.3687C5.1235 14.3971 8.65302 18.6501 9.69116 19.8575C9.76894 19.9478 9.88233 19.9998 10.0017 19.9998C10.121 19.9998 10.2344 19.9478 10.3122 19.8575C11.3499 18.6503 14.8794 14.3975 16.7209 10.3687C17.1483 9.43334 17.3649 8.42222 17.3649 7.3632C17.3644 3.30314 14.0613 0 10.0015 0ZM10.0015 11.1877C7.89263 11.1877 6.17679 9.47182 6.17679 7.36299C6.17679 5.25396 7.89263 3.53812 10.0015 3.53812C12.1103 3.53812 13.8261 5.25396 13.8261 7.36299C13.8263 9.47182 12.1105 11.1877 10.0015 11.1877Z" fill="#EA2127"/>
</svg>
