<svg viewBox="0 0 10 10" fill="none" xmlns="http://www.w3.org/2000/svg">
  <path d="M10 5A5 5 0 100 5a5 5 0 0010 0z" fill="#2D2E3E"/>
  <path d="M2.786 3.499c0-.28.09-.565.27-.853a2.08 2.08 0 01.788-.715c.345-.189.748-.284 1.209-.284.428 0 .806.08 1.134.237.327.158.58.373.76.645.178.271.267.567.267.885 0 .251-.05.471-.153.66a2.02 2.02 0 01-.363.49c-.14.137-.392.368-.755.693-.1.091-.18.172-.241.241a.98.98 0 00-.135.19.93.93 0 00-.069.173c-.016.058-.04.159-.073.304-.056.307-.232.46-.527.46a.539.539 0 01-.387-.15c-.105-.1-.158-.25-.158-.448 0-.248.039-.463.115-.644a1.65 1.65 0 01.306-.478c.127-.138.298-.3.514-.49.189-.165.325-.29.41-.374.084-.084.154-.178.212-.281a.68.68 0 00.086-.337.783.783 0 00-.263-.598c-.176-.162-.402-.243-.68-.243-.325 0-.564.082-.717.246-.154.164-.284.405-.39.724-.1.333-.29.5-.571.5a.561.561 0 01-.419-.175.535.535 0 01-.17-.378zm2.16 4.853a.697.697 0 01-.47-.175c-.135-.116-.202-.28-.202-.489a.658.658 0 01.673-.66c.186 0 .342.064.47.19.126.128.19.284.19.47 0 .207-.067.37-.2.487a.673.673 0 01-.46.177z" fill="#fff"/>
</svg>