<svg width="109" height="160" fill="none" xmlns="http://www.w3.org/2000/svg">
  <path d="M102.278 106.741c-.069-.069-.138-.173-.207-.242l-3.826-3.689c3.171-.724 6.584-3.38 6.584-6.104 0-3.172-4.412-4.31-8.17-4.31-3.93 0-4.378 2.69-4.447 4.586l-9.859-9.517c-2-2-5.791-3.552-8.652-3.552H35.3c-2.828 0-6.62 1.552-8.653 3.552l-9.86 9.517c-.034-1.897-.516-4.586-4.446-4.586-3.758 0-8.17 1.138-8.17 4.31 0 2.724 3.413 5.38 6.584 6.104l-3.826 3.689c-.104.069-.138.173-.207.242C2.654 110.223 0 116.706 0 121.43v13.966c0 3.379 1.344 6.483 3.482 8.758v5.414c0 3.173 2.654 5.759 5.929 5.759h7.136c3.274 0 5.894-2.586 5.894-5.759v-1.379H86.49v1.379c0 3.173 2.654 5.759 5.929 5.759h7.136c3.275 0 5.894-2.586 5.894-5.759v-5.414a12.72 12.72 0 0 0 3.482-8.758V121.43c.103-4.724-2.585-11.207-6.653-14.689zM30.301 91.706c1.379-1.138 3.792-2.034 5.033-2.034H73.735c1.207 0 3.62.862 5.033 2.034l12.927 12.517H17.374L30.3 91.706zM4.447 119.292c0-3.448 2.689-6.241 6.032-6.241 3.31 0 14.168 6.379 14.168 9.828 0 3.448-10.858 2.655-14.168 2.655-3.343 0-6.032-2.793-6.032-6.242zm18.029 22.759H13.41c-1.896-.586-3.206-1.276-4.172-2a7.08 7.08 0 0 1-1.137-1.138 4.642 4.642 0 0 1-.62-1.138c-.862-2.379.896-4.586.896-4.586h11.617l7.721 8.897-5.24-.035zm48.708 0H37.816a6.313 6.313 0 0 1-6.309-6.31h45.986a6.29 6.29 0 0 1-6.309 6.31zm1.483-10.586H36.402c-3.792 0-6.86-4.655-6.86-10.414h49.985c-.035 5.759-3.103 10.414-6.86 10.414zm28.887 6.31a4.67 4.67 0 0 1-.62 1.138c-.276.379-.655.759-1.138 1.138-.93.724-2.275 1.414-4.171 2H81.319l7.722-8.897h11.617c0 .035 1.723 2.207.896 4.621zm-2.999-12.241c-3.31 0-14.168.793-14.168-2.655 0-3.449 10.859-9.828 14.168-9.828 3.309 0 6.033 2.793 6.033 6.241 0 3.449-2.689 6.242-6.033 6.242zM87.007 8.103H60.05v-2.69A5.385 5.385 0 0 0 54.672.034h-37.78a5.385 5.385 0 0 0-5.378 5.38v29.655c0 14.827 14.168 14.827 18.856 14.827.793 0 1.344-.552 1.344-1.345 0-.793-.551-1.344-1.344-1.344a5.385 5.385 0 0 1-5.378-5.38v-.551c.414-2.828 2.827-4.863 5.653-4.863H49.26v2.69H37.126c-.793 0-1.344.552-1.344 1.345 0 3.103 1.206 6.069 3.24 8.241-.413 1.345-.551 2.552-.551 3.897 0 5.38 3.24 10.241 8.1 12.414 0 .793-.413 2.413-4.033 2.413-3.757 0-6.756 2.966-6.756 6.76v6.758h2.689v-6.759c0-2.172 1.62-3.897 3.757-4.034l6.619 3.241c.551.276 1.206.552 1.758.69v6.862h2.689v-6.862c.689-.138 1.206-.276 1.758-.552l6.618-3.242c2.172.138 3.758 1.897 3.758 4.035v6.724h2.688v-6.759c0-3.758-2.964-6.758-6.756-6.758-3.654 0-4.033-1.62-4.033-2.414 5.136-2.172 8.239-7.276 8.1-12.793v-.931c0-1.897-.413-3.759-1.344-5.38h9.032c2.827 0 5.24 2.035 5.653 4.863.276 2.965-1.896 5.655-4.86 5.93h-.552c-.793 0-1.344.552-1.344 1.346 0 .793.551 1.344 1.344 1.344 4.723 0 18.856 0 18.856-14.827V13.483c.173-2.966-2.24-5.38-5.205-5.38zm-56.362 25.62c-4.17 0-7.825 3.104-8.342 7.277-.137 2.034.414 4.034 1.62 5.655-6.618-1.345-9.72-5-9.72-11.586V5.413a2.693 2.693 0 0 1 2.688-2.69h37.747a2.693 2.693 0 0 1 2.689 2.69v25.621a2.693 2.693 0 0 1-2.69 2.69H30.646zm7.963 8.07h14.686c4.722 0 8.617 3.517 9.307 8.103H47.916c-4.723 0-8.618-3.517-9.307-8.103zm16.995 20.896c-.551.138-.93.69-.93 1.207v.793a4.737 4.737 0 0 0 2.688 4.587l-3.516 1.758a4.79 4.79 0 0 1-3.895 0l-3.379-1.759c1.759-.793 2.827-2.69 2.69-4.586V64c0-.551-.414-1.068-.931-1.206-4.31-1.62-7.136-5.655-7.136-10.242 0-.69 0-1.344.138-1.896 1.896 1.207 4.17 1.896 6.618 1.896h14.823c-.034 4.621-2.86 8.656-7.17 10.138zm34.093-18.207c0 6.621-3.103 10.242-9.721 11.587 1.206-1.621 1.758-3.656 1.62-5.656-.552-4.172-4.033-7.275-8.342-7.275H62.325a12.032 12.032 0 0 0-9.032-4.035H51.95v-2.69h2.689a5.385 5.385 0 0 0 5.378-5.379V10.793h26.956a2.693 2.693 0 0 1 2.69 2.69l.034 31z" fill="#E5262A"/>
  <path d="M43.192 15.31h-1.344c-.793 0-1.344-.552-1.344-1.345v-4c0-2.276-1.758-4.034-4.034-4.034-2.275 0-4.033 1.758-4.033 4.034V14c0 .793-.551 1.345-1.344 1.345 0-.794-.552-1.345-1.345-1.345h-5.377c-.793 0-1.345.551-1.345 1.345v14.758c0 .793.552 1.345 1.345 1.345h5.377c.793 0 1.345-.552 1.345-1.345h12.065c2.275 0 4.033-1.759 4.033-4.034v-6.724c0-2.276-1.723-4.035-3.999-4.035zM28.404 28.758h-2.689V16.69h2.689v12.07zm16.098-2.69c0 .794-.551 1.345-1.344 1.345H31.093V18c2.275 0 4.033-1.759 4.033-4.035v-4c0-.793.552-1.345 1.344-1.345.793 0 1.345.552 1.345 1.345V14c0 2.276 1.758 4.034 4.033 4.034h1.344c.793 0 1.345.552 1.345 1.345v6.69h-.035zM86.11 13.966h-5.377c-.793 0-1.345.552-1.345 1.345H67.323c-2.275 0-4.033 1.758-4.033 4.034v6.724c0 2.276 1.758 4.035 4.033 4.035h1.344c.793 0 1.345.552 1.345 1.345v4.034c0 2.276 1.758 4.035 4.033 4.035 2.275 0 4.033-1.76 4.033-4.035V31.45c0-.794.552-1.345 1.345-1.345 0 .793.551 1.345 1.344 1.345h5.378c.793 0 1.344-.552 1.344-1.345V15.31c-.034-.793-.552-1.345-1.379-1.345zm-6.687 13.448c-2.276 0-4.034 1.759-4.034 4.035v4.034c0 .793-.551 1.345-1.344 1.345s-1.344-.552-1.344-1.345V31.45c0-2.276-1.758-4.035-4.034-4.035h-1.344c-.793 0-1.344-.552-1.344-1.345v-6.724c0-.793.551-1.345 1.344-1.345h12.065v9.414h.035zM84.8 28.76h-2.689V16.69h2.69v12.069zM67.357 35.448H61.98v2.69h5.377v-2.69zM48.536 7.275V5.931h-2.689v1.344h-1.344v2.69h1.344v1.31h2.689v-1.31h1.344v-2.69h-1.344z" fill="#E5262A"/>
</svg>