<svg width="332" height="206" fill="none" xmlns="http://www.w3.org/2000/svg">
  <path d="M210.725 178.597c.964-.481 2.652-.721 3.375-1.683.723-.721.723-2.163 1.206-3.125 1.205-2.163 4.098-2.884 6.509-3.846 2.412-.961 5.787-1.923 5.064-5.288-.241-1.682-1.929-3.605 0-4.807.241-.241.482-.241.723-.241 2.17-.721 4.581 1.202 6.51 1.923 1.446.481 3.134.721 4.581.962 1.205 0 3.616-.481 4.822 0 1.446.721 1.688 2.884 2.893 4.086 2.17 1.923 5.304 1.202 7.715 2.644 1.929.962 1.929 2.164 2.411 4.087.724 2.403 2.653 2.403 5.064 2.644 4.581.48 8.438-2.404 12.055-5.048 1.446-1.202 2.652-3.606 4.581-4.327 1.687-.721 6.751-.721 7.956.721.723.962.482 1.683 0 2.644-.241.481-.482.962-.482 1.443-.241 1.201 0 2.644 0 3.846-.241 3.605-3.858 2.644-6.269 3.846-3.375 1.682-5.545.48-8.921.24-4.339-.24-4.581 2.884-6.509 5.769-2.17 3.605-5.064 5.048-9.162 6.73-3.617 1.443-3.617 4.808-6.51 6.971-1.688 1.202-2.893.962-3.858 2.885-.964 1.442-1.446 2.403-3.375 3.125-3.135.961-6.269-.481-9.162-1.923-1.206-.722-1.929-.722-2.411-2.645-.241-1.201.241-2.644.482-3.846.723-2.403 1.447-6.73-.723-8.653-2.17-2.163-5.787.24-8.198-.24-2.893-.481-5.545-4.327-8.921-3.125-1.446.481-1.687 1.442-3.375.721-1.447-.721-1.688-1.923-1.447-3.365 0-1.683 2.17-2.404 3.376-3.125z" stroke="#fff" stroke-miterlimit="10"/>
  <path d="M14.707 136.292c-2.652-4.087-5.545-7.692-11.09-8.173H1.206c0-.721.24-1.442.24-2.164.242-3.845 2.17-6.49 4.34-9.614 1.206-1.683 2.412-3.366 2.412-5.289.24 0 .723-.24.964-.24 5.786-1.202 1.929-7.211 2.411-12.26.723-6.249 4.822-11.297 9.644-15.143 5.546-4.326 13.984-8.893 10.609-17.547-.965-2.163-3.135-4.086-4.34-6.01-1.447-2.403-2.411-5.047-3.617-7.691-1.205-1.923-2.41-3.846-3.134-6.01 3.858-.48 7.715-1.682 10.85-4.326 4.822-3.846 8.197-7.692 14.466-9.615 3.857-.962 8.92-1.442 12.778-.24 5.305 1.682 8.439 5.047 14.708 4.567 6.268-.481 10.85-4.327 17.118-2.885 3.617.721 5.304 2.404 9.162 2.404 2.411 0 5.063.24 7.474-.24 5.546-.962 9.644-.481 15.19.48 5.545.962 15.43 4.808 20.253.24 4.339-4.086.241-10.335 4.58-14.422 3.858-3.365 12.779-2.404 13.502-8.653v-.24c2.652.96 6.269 1.442 7.475.48 2.652-1.683.482-7.451 4.098-8.894 1.206-.48 2.894.481 4.581.481 2.17 0 3.135-.721 4.822-1.683 3.135-1.923 6.51-2.644 10.368-2.163 1.929.24 4.34.721 5.786 1.923 1.688 1.442 1.688 3.125 2.652 4.808 1.206 1.922 3.135 2.163 4.581 3.605 1.206 1.202 1.206 2.885 1.688 4.327.723 2.884 1.206 8.653 4.34 9.615 1.688.48 3.375-.721 5.063-.721 2.17 0 3.376.48 5.063 1.682 3.617 2.164 5.546 5.288 7.475 8.654.964 1.923 2.411 4.086 3.857 5.528 2.411 1.923 3.617.962 6.028.481 2.652-.48 6.269-.48 8.68.24 2.17.721 3.616 2.164 6.268 1.923 4.581-.48 5.305-5.528 9.886-6.25 6.027-.96 8.679 2.164 13.26 5.289 6.028 4.327 11.332 1.682 18.083 1.202 3.134-.24 6.751-.721 9.644.48 2.652 1.202 4.34 2.885 6.992 3.366 5.304 1.202 15.19 1.923 13.984 9.615-.241 2.163-1.446 3.846-1.446 6.009 0 4.807 3.134 9.134 4.581 13.46.964 3.126 1.928 6.491 2.17 9.616.482 3.846-1.929 5.048-5.546 6.49-7.474 3.125-19.529 7.452-19.77 17.307 0 3.125.964 4.086-.965 6.971-.482.721-.964 1.202-1.446 1.682-2.411 2.644-5.546 4.087-8.68 6.01-1.447.961-8.198 7.211-9.403 5.047-6.269-.48-8.198 6.25-12.538 8.654-2.893 1.442-7.233.721-9.885 2.884-1.205.962-1.205 1.923-2.17 3.125-1.205 1.442-.964.721-2.893 1.202-3.858 1.202-4.099 2.404-5.787 5.769-1.446 2.885-3.616 4.327-6.992 4.808-5.063.48-10.608-1.202-15.43.24-1.929.481-2.893 1.683-4.099 2.644l-2.17 2.163c-2.17 1.683-5.063 1.443-7.956 1.443-6.51 0-14.467 2.884-20.976.721-1.206-.481-3.135-1.683-3.135-3.125-.241-1.683.724-1.683 1.929-2.885 2.893-3.365 1.206-5.528-2.411-7.451-2.652-1.442-5.304-1.923-7.715.24-1.929 1.442-3.135 6.25-6.269 4.567-2.411-1.202-3.134-11.538-6.028-5.769-1.687 3.125-2.652 8.413-1.687 11.779.723 2.163 3.134 6.009.241 7.932-2.652 1.683-5.787-1.923-8.439-1.202-.723 3.125 0 5.769.482 8.654.483 3.605-1.446 5.047-4.822 6.97-2.17.962-5.063 1.923-4.098 5.048.482 1.683 2.411 2.164 2.411 4.087 0 1.201-.483 2.163-1.206 3.124-3.375-4.807-7.956-2.163-12.778.722-4.822 2.884-8.921 2.644-12.056-.241.241-1.682.724-3.365 1.206-4.567 1.688-3.606 4.822-6.25 6.992-9.615 1.447-2.163 2.411-4.327 2.17-6.971 0-1.682-1.447-4.326-1.206-5.769.241-2.884.724-.961 2.411-.961 1.929 0 2.653-.962 4.34-1.442 2.17-.481 5.305 0 7.474 0 3.858 0 5.064-.481 4.099-4.327-.723-2.644-1.205-5.769-3.616-7.211-2.411-1.443-5.546-1.443-7.233-4.087-1.688-2.644 0-5.769-1.929-8.172-2.17-2.404-5.063-1.683-6.51-5.048-1.929-4.567.964-9.615-3.858-12.259-5.063-2.885-9.885-.241-15.189-1.202-4.581-.721-7.957-5.288-12.779-6.009-2.652-.481-4.581.721-6.992 1.442-2.41.721-4.58.721-7.233.721-4.58 0-4.822 2.404-5.063 5.048-4.34 0-6.992 3.365-10.126 6.009-3.858 3.365-9.162 6.25-13.984 7.932-6.27 1.923-7.957-1.682-13.502-2.884-3.858-.962-9.403 0-13.502-.481-3.858-.481-8.439-.24-12.296-.481-1.688 0-4.34-.48-5.787 0-.964.481-1.447.722-1.688.722z" stroke="#fff" stroke-miterlimit="10"/>
  <circle cx="172" cy="145" r="9" fill="#EA2127" fill-opacity=".7"/>
  <circle cx="172" cy="145" r="4" fill="#fff"/>
</svg>