<svg width="330" height="179" viewBox="0 0 330 179" fill="none" xmlns="http://www.w3.org/2000/svg">
<path d="M329.588 26.8297C329.547 26.7886 329.506 26.7474 329.465 26.7063C326.83 24.2373 308.801 25.7598 308.801 25.7598C308.801 25.7598 308.678 26.1302 308.39 26.7063C307.772 27.8996 306.373 29.8336 303.45 30.5743C299.169 31.6442 238.454 32.7141 236.849 28.4346C236.561 27.6939 236.108 27.1589 235.491 26.7063C232.568 24.5254 226.723 25.2249 226.723 25.2249C226.723 25.2249 226.27 25.8421 225.529 26.7063C223.883 28.6403 220.796 31.9734 218.202 32.673C215.321 33.4959 214.662 29.8748 215.033 26.7063C215.115 25.801 215.321 24.8957 215.568 24.155C216.309 21.933 209.229 14.1969 203.26 10.3288C200.708 8.68284 198.362 7.69525 196.921 8.18904C192.147 9.79387 167.079 0.206055 167.079 0.206055H79.7317H12.0605C12.0605 0.206055 11.7312 3.62146 11.1961 6.58422C11.1549 6.87226 11.0726 7.11916 11.0314 7.4072C10.7845 8.64169 10.4552 9.75272 10.1259 10.37C9.92004 10.7815 9.67307 10.9872 9.42609 10.9049C9.17912 10.8226 8.84982 10.6169 8.47936 10.37C6.05077 8.80628 1.23475 4.85594 0.329175 7.11916C0.0410375 7.85985 0.329175 8.97088 0.864288 10.3288C2.30498 13.9088 5.63914 18.929 5.63914 22.0564C5.63914 22.7559 5.63914 24.4019 5.63914 26.7063C5.63914 29.381 5.63914 32.8787 5.63914 36.829C5.63914 41.9316 5.63914 47.6925 5.63914 53.2065C5.63914 56.7865 5.63914 60.2431 5.63914 63.3293C5.63914 68.8433 5.63914 73.164 5.63914 74.7688C5.63914 76.8674 6.99751 78.3077 8.68517 79.7067C11.7312 82.2169 15.9298 84.4389 15.23 89.5003C15.23 89.6238 15.23 89.7472 15.1888 89.8295C14.6949 95.755 21.9807 101.969 27.0025 106.207C28.4843 107.483 29.8015 108.552 30.666 109.375C32.2301 110.939 34.4117 113.696 36.6757 116.33C39.8452 120.033 43.1794 123.531 45.0317 123.243C48.2424 122.708 54.0874 120.568 57.8332 124.848C60.9616 128.387 75.2038 131.967 82.2838 132.707H86.3589C90.3928 132.172 100.972 130.691 107.146 132.707C109.41 133.448 111.098 134.641 111.633 136.534C112.25 138.715 113.403 140.896 114.679 142.83C117.766 147.48 121.717 150.936 121.717 150.936C121.717 150.936 124.393 146.657 125.998 143.488C126.122 143.241 126.287 143.036 126.451 142.871C127.357 142.007 128.921 141.925 130.732 142.871C133.449 144.311 136.701 148.138 138.759 155.216C139.17 156.656 139.747 157.973 140.405 159.249C142.752 163.652 146.415 166.985 149.79 169.371C154.112 172.416 157.941 173.857 157.941 173.857C157.941 173.857 157.94 172.005 157.982 169.371C158.023 166.409 158.105 162.499 158.27 159.249C158.311 158.179 158.393 157.15 158.476 156.286C159.011 150.443 176.587 145.093 179.798 144.558C183.008 144.023 204.29 153.611 204.29 150.401C204.29 147.727 207.665 145.422 211.616 142.83C212.357 142.336 213.139 141.842 213.88 141.349C215.568 140.238 217.667 141.225 219.684 142.83C223.389 145.793 226.847 150.854 227.176 148.797C227.711 145.587 237.837 147.192 238.907 150.936C239.525 153.117 240.348 156.245 240.801 159.207C241.13 161.265 241.253 163.24 241.048 164.763C240.883 165.791 241.583 167.478 242.694 169.33C245.534 174.021 251.091 179.782 252.244 178.63C252.944 177.93 253.767 173.939 254.055 169.33C254.302 165.915 254.261 162.129 253.685 159.207C253.314 157.15 252.655 155.504 251.668 154.64C249.774 152.994 248.292 148.056 247.634 142.83C247.181 139.291 247.099 135.629 247.469 132.707C247.798 130.238 248.457 128.304 249.568 127.481C251.256 126.206 257.183 121.597 263.44 116.33C267.392 112.997 271.467 109.375 274.677 106.207C279.288 101.598 282.046 97.8948 279.946 97.113C276.489 95.8785 275.995 93.4918 276.406 89.8295C276.694 87.2371 277.394 84.0274 277.806 80.0771C277.806 79.9536 277.847 79.8302 277.847 79.7067C279.041 70.8185 285.297 81.5173 287.932 69.4194C288.467 66.8681 289.908 64.8929 291.801 63.3293C299.004 57.2803 312.835 57.2803 310.324 55.5932C309.542 55.0582 308.966 54.2353 308.637 53.2065C307.607 50.0792 308.678 45.2235 311.888 42.7957C313.535 41.5612 316.869 39.298 320.162 36.829C325.595 32.9198 330.905 28.4757 329.588 26.8297Z" stroke="white" stroke-miterlimit="10"/>
<circle cx="284" cy="71" r="9" fill="#EA2127" fill-opacity="0.7"/>
<circle cx="284" cy="71" r="4" fill="white"/>
<circle cx="253" cy="165" r="9" fill="#EA2127" fill-opacity="0.7"/>
<circle cx="253" cy="165" r="4" fill="white"/>
<circle cx="29" cy="108" r="9" fill="#EA2127" fill-opacity="0.7"/>
<circle cx="29" cy="108" r="4" fill="white"/>
<circle cx="165" cy="152" r="9" fill="#EA2127" fill-opacity="0.7"/>
<circle cx="165" cy="152" r="4" fill="white"/>
</svg>
